<?xml version="1.0" encoding="UTF-8"?><svg id="Logo" xmlns="http://www.w3.org/2000/svg" width="2048" height="2048" xmlns:xlink="http://www.w3.org/1999/xlink" viewBox="0 0 2048 2048"><defs><style>.cls-1{clip-path:url(#clippath-1);}.cls-2{clip-path:url(#clippath);}.cls-3{fill:none;}.cls-4{fill:#009b8a;}.cls-5{fill:#57068c;}</style><clipPath id="clippath"><rect class="cls-3" x="135.23" y="226.85" width="888.42" height="1594.31"/></clipPath><clipPath id="clippath-1"><rect class="cls-3" x="1023.65" y="226.85" width="888.42" height="1594.31"/></clipPath></defs><g id="_Mirror_Repeat_"><g class="cls-2"><path class="cls-4" d="m568.45,1684.52c2.18-.44,3.72-2.4,3.61-4.62-1.95-42.08-19.19-415.47-20.88-491.56-.33-14.84,3.38-29.47,10.74-42.36h0c8.22-14.4,20.62-25.96,35.56-33.13l265.49-114.66c7.68-3.35,10.76-12.63,6.63-19.92l-19.25-33.96c-3.13-5.52-9.54-8.27-15.69-6.73l-412.95,102.68c-11.87,3.23-19.06,15.28-16.28,27.27l157.77,613.69c.6,2.32,2.9,3.76,5.24,3.29h0Z"/><path class="cls-5" d="m990.78,794.96l-150.92-231.39c-9.09-15.92-10.35-35.13-3.43-52.11l100.01-211.9c6.92-16.99,5.65-36.21-3.43-52.14l-6.22-9.53c-8.96-13.79-25.07-14.82-35.72-2.3l-238.94,280.14c-10.66,12.91-9.81,31.81,1.96,43.71l282.34,276.66c1.58,1.71,3.4,3.17,5.41,4.34,11.28,6.6,25.38-4.34,40.8-13.75,10.08-6.15,19.62-11.71,8.15-31.74Z"/><path class="cls-5" d="m888.86,882.11l-35.49,29.54c-5.49,4.57-13.31,5-19.27,1.07l-210.58-139.06c-15.48-9.01-34.6-9.01-50.08,0l-403.76,263.87c-13.74,9.01-28.61,12.48-33.01,7.77-4.4-4.71,1.55-18.13,13.19-29.75l427.5-428.1c11.7-11.62,30.58-11.62,42.28,0l270.33,270.72c6.74,6.75,6.23,17.85-1.1,23.95Z"/><path class="cls-4" d="m950.76,1817.46l-130.1-560.05c-2.82-12.38,1.76-25.28,11.74-33.1,0,0,122.07-100.19,163.63-134.07,0,0,12.78-9.83,27.87-9.83l-.08-92.57c-11.46,0-39.59,13.21-45.54,15.92l-307.12,143.6c-22.42,11.32-31.71,38.5-20.91,61.2l294.86,610.9c1.57,3.22,6.43,1.5,5.63-1.99Z"/></g></g><g id="_Mirror_Repeat_-2"><g class="cls-1"><path class="cls-4" d="m1478.85,1684.52c-2.18-.44-3.72-2.4-3.61-4.62,1.95-42.08,19.19-415.47,20.88-491.56.33-14.84-3.38-29.47-10.74-42.36h0c-8.22-14.4-20.62-25.96-35.56-33.13l-265.49-114.66c-7.68-3.35-10.76-12.63-6.63-19.92l19.25-33.96c3.13-5.52,9.54-8.27,15.69-6.73l412.95,102.68c11.87,3.23,19.06,15.28,16.28,27.27l-157.77,613.69c-.6,2.32-2.9,3.76-5.24,3.29h0Z"/><path class="cls-5" d="m1056.51,794.96l150.92-231.39c9.09-15.92,10.35-35.13,3.43-52.11l-100.01-211.9c-6.92-16.99-5.65-36.21,3.43-52.14l6.22-9.53c8.96-13.79,25.07-14.82,35.72-2.3l238.94,280.14c10.66,12.91,9.81,31.81-1.96,43.71l-282.34,276.66c-1.58,1.71-3.4,3.17-5.41,4.34-11.28,6.6-25.38-4.34-40.8-13.75-10.08-6.15-19.62-11.71-8.15-31.74Z"/><path class="cls-5" d="m1158.43,882.11l35.49,29.54c5.49,4.57,13.31,5,19.27,1.07l210.58-139.06c15.48-9.01,34.6-9.01,50.08,0l403.76,263.87c13.74,9.01,28.61,12.48,33.01,7.77,4.4-4.71-1.55-18.13-13.19-29.75l-427.5-428.1c-11.7-11.62-30.58-11.62-42.28,0l-270.33,270.72c-6.74,6.75-6.23,17.85,1.1,23.95Z"/><path class="cls-4" d="m1096.53,1817.46l130.1-560.05c2.82-12.38-1.76-25.28-11.74-33.1,0,0-122.07-100.19-163.63-134.07,0,0-12.78-9.83-27.87-9.83l.08-92.57c11.46,0,39.59,13.21,45.54,15.92l307.12,143.6c22.42,11.32,31.71,38.5,20.91,61.2l-294.86,610.9c-1.57,3.22-6.43,1.5-5.63-1.99Z"/></g></g></svg>