<?xml version="1.0" encoding="UTF-8" standalone="no"?>
<svg
   id="Logo"
   width="2048"
   height="2048"
   viewBox="0 0 2048 2048"
   version="1.1"
   sodipodi:docname="OSIRIS Pride Logo.svg"
   inkscape:version="1.3.2 (091e20ef0f, 2023-11-25, custom)"
   inkscape:export-filename="OSIRIS Pride Logo2.png"
   inkscape:export-xdpi="96"
   inkscape:export-ydpi="96"
   xmlns:inkscape="http://www.inkscape.org/namespaces/inkscape"
   xmlns:sodipodi="http://sodipodi.sourceforge.net/DTD/sodipodi-0.dtd"
   xmlns="http://www.w3.org/2000/svg"
   xmlns:svg="http://www.w3.org/2000/svg">
  <sodipodi:namedview
     id="namedview9"
     pagecolor="#ffffff"
     bordercolor="#000000"
     borderopacity="0.25"
     inkscape:showpageshadow="2"
     inkscape:pageopacity="0.0"
     inkscape:pagecheckerboard="true"
     inkscape:deskcolor="#d1d1d1"
     inkscape:zoom="0.61132812"
     inkscape:cx="678.03195"
     inkscape:cy="714.01917"
     inkscape:window-width="1908"
     inkscape:window-height="1043"
     inkscape:window-x="816"
     inkscape:window-y="206"
     inkscape:window-maximized="1"
     inkscape:current-layer="Logo" />
  <defs
     id="defs2">
    <inkscape:path-effect
       effect="mirror_symmetry"
       start_point="-195.53295,1908.87"
       end_point="7234.6651,1908.87"
       center_point="3519.5661,1908.87"
       id="path-effect16"
       is_visible="false"
       lpeversion="1.2"
       lpesatellites=""
       mode="vertical"
       discard_orig_path="true"
       fuse_paths="true"
       oposite_fuse="true"
       split_items="false"
       split_open="false"
       link_styles="false" />
    <inkscape:path-effect
       effect="mirror_symmetry"
       start_point="-295.83227,2052.8241"
       end_point="7109.7848,1452.4711"
       center_point="3406.9763,1752.6476"
       id="path-effect43"
       is_visible="true"
       lpeversion="1.2"
       lpesatellites=""
       mode="vertical"
       discard_orig_path="false"
       fuse_paths="false"
       oposite_fuse="false"
       split_items="false"
       split_open="false"
       link_styles="false" />
    <style
       id="style1">.cls-1{clip-path:url(#clippath-1);}.cls-2{clip-path:url(#clippath);}.cls-3{fill:none;}.cls-4{fill:#009b8a;}.cls-5{fill:#57068c;}</style>
    <clipPath
       id="clippath">
      <rect
         class="cls-3"
         x="135.23"
         y="226.85"
         width="888.42"
         height="1594.31"
         id="rect1" />
    </clipPath>
    <clipPath
       id="clippath-1">
      <rect
         class="cls-3"
         x="1023.65"
         y="226.85"
         width="888.42"
         height="1594.31"
         id="rect2" />
    </clipPath>
    <clipPath
       clipPathUnits="userSpaceOnUse"
       id="clipPath37">
      <g
         id="g46"
         style="display:inline"
         inkscape:label="OSIRIS Logo"
         transform="matrix(0,-3.0727086,3.0727086,0,-282.46908,5050.3783)">
        <g
           id="g41">
          <g
             class="cls-2"
             clip-path="url(#clippath)"
             id="g40">
            <path
               class="cls-4"
               d="m 568.45,1684.52 c 2.18,-0.44 3.72,-2.4 3.61,-4.62 -1.95,-42.08 -19.19,-415.47 -20.88,-491.56 -0.33,-14.84 3.38,-29.47 10.74,-42.36 v 0 c 8.22,-14.4 20.62,-25.96 35.56,-33.13 L 862.97,998.19 c 7.68,-3.35 10.76,-12.63 6.63,-19.92 l -19.25,-33.96 c -3.13,-5.52 -9.54,-8.27 -15.69,-6.73 l -412.95,102.68 c -11.87,3.23 -19.06,15.28 -16.28,27.27 l 157.77,613.69 c 0.6,2.32 2.9,3.76 5.24,3.29 v 0 z"
               id="path37" />
            <path
               class="cls-5"
               d="M 990.78,794.96 839.86,563.57 c -9.09,-15.92 -10.35,-35.13 -3.43,-52.11 l 100.01,-211.9 c 6.92,-16.99 5.65,-36.21 -3.43,-52.14 l -6.22,-9.53 c -8.96,-13.79 -25.07,-14.82 -35.72,-2.3 L 652.13,515.73 c -10.66,12.91 -9.81,31.81 1.96,43.71 L 936.43,836.1 c 1.58,1.71 3.4,3.17 5.41,4.34 11.28,6.6 25.38,-4.34 40.8,-13.75 10.08,-6.15 19.62,-11.71 8.15,-31.74 z"
               id="path38" />
            <path
               class="cls-5"
               d="m 888.86,882.11 -35.49,29.54 c -5.49,4.57 -13.31,5 -19.27,1.07 L 623.52,773.66 c -15.48,-9.01 -34.6,-9.01 -50.08,0 l -403.76,263.87 c -13.74,9.01 -28.61,12.48 -33.01,7.77 -4.4,-4.71 1.55,-18.13 13.19,-29.75 l 427.5,-428.1 c 11.7,-11.62 30.58,-11.62 42.28,0 l 270.33,270.72 c 6.74,6.75 6.23,17.85 -1.1,23.95 z"
               id="path39" />
            <path
               class="cls-4"
               d="m 950.76,1817.46 -130.1,-560.05 c -2.82,-12.38 1.76,-25.28 11.74,-33.1 0,0 122.07,-100.19 163.63,-134.07 0,0 12.78,-9.83 27.87,-9.83 l -0.08,-92.57 c -11.46,0 -39.59,13.21 -45.54,15.92 l -307.12,143.6 c -22.42,11.32 -31.71,38.5 -20.91,61.2 l 294.86,610.9 c 1.57,3.22 6.43,1.5 5.63,-1.99 z"
               id="path40" />
          </g>
        </g>
        <g
           id="g45">
          <g
             class="cls-1"
             clip-path="url(#clippath-1)"
             id="g44">
            <path
               class="cls-4"
               d="m 1478.85,1684.52 c -2.18,-0.44 -3.72,-2.4 -3.61,-4.62 1.95,-42.08 19.19,-415.47 20.88,-491.56 0.33,-14.84 -3.38,-29.47 -10.74,-42.36 v 0 c -8.22,-14.4 -20.62,-25.96 -35.56,-33.13 L 1184.33,998.19 c -7.68,-3.35 -10.76,-12.63 -6.63,-19.92 l 19.25,-33.96 c 3.13,-5.52 9.54,-8.27 15.69,-6.73 l 412.95,102.68 c 11.87,3.23 19.06,15.28 16.28,27.27 l -157.77,613.69 c -0.6,2.32 -2.9,3.76 -5.24,3.29 v 0 z"
               id="path41" />
            <path
               class="cls-5"
               d="m 1056.51,794.96 150.92,-231.39 c 9.09,-15.92 10.35,-35.13 3.43,-52.11 l -100.01,-211.9 c -6.92,-16.99 -5.65,-36.21 3.43,-52.14 l 6.22,-9.53 c 8.96,-13.79 25.07,-14.82 35.72,-2.3 l 238.94,280.14 c 10.66,12.91 9.81,31.81 -1.96,43.71 L 1110.86,836.1 c -1.58,1.71 -3.4,3.17 -5.41,4.34 -11.28,6.6 -25.38,-4.34 -40.8,-13.75 -10.08,-6.15 -19.62,-11.71 -8.15,-31.74 z"
               id="path42" />
            <path
               class="cls-5"
               d="m 1158.43,882.11 35.49,29.54 c 5.49,4.57 13.31,5 19.27,1.07 l 210.58,-139.06 c 15.48,-9.01 34.6,-9.01 50.08,0 l 403.76,263.87 c 13.74,9.01 28.61,12.48 33.01,7.77 4.4,-4.71 -1.55,-18.13 -13.19,-29.75 l -427.5,-428.1 c -11.7,-11.62 -30.58,-11.62 -42.28,0 l -270.33,270.72 c -6.74,6.75 -6.23,17.85 1.1,23.95 z"
               id="path43" />
            <path
               class="cls-4"
               d="m 1096.53,1817.46 130.1,-560.05 c 2.82,-12.38 -1.76,-25.28 -11.74,-33.1 0,0 -122.07,-100.19 -163.63,-134.07 0,0 -12.78,-9.83 -27.87,-9.83 l 0.08,-92.57 c 11.46,0 39.59,13.21 45.54,15.92 l 307.12,143.6 c 22.42,11.32 31.71,38.5 20.91,61.2 l -294.86,610.9 c -1.57,3.22 -6.43,1.5 -5.63,-1.99 z"
               id="path44" />
          </g>
        </g>
      </g>
    </clipPath>
  </defs>
  <g
     id="g11"
     transform="matrix(0,0.32544576,-0.32544576,0,1643.6242,91.928364)"
     clip-path="url(#clipPath37)"
     inkscape:label="Pride">
    <g
       id="g42"
       transform="matrix(1.0189841,0,0,1.852174,-621.78006,-1623.3915)"
       inkscape:label="Rainbow"
       style="display:inline">
      <path
         fill="#750787"
         d="M 422.99018,0 H 6422.9902 V 3810 H 422.99018 Z"
         id="path1" />
      <path
         fill="#004dff"
         d="M 422.99018,0 H 6422.9902 V 2932.756 H 422.99018 Z"
         id="path2-3"
         style="stroke-width:0.961094" />
      <path
         fill="#008026"
         d="M 422.99018,0 H 6422.9902 V 2540 H 422.99018 Z"
         id="path3-6" />
      <path
         fill="#ffed00"
         d="M 422.99018,0 H 6422.9902 V 1905 H 422.99018 Z"
         id="path4-0" />
      <path
         fill="#ff8c00"
         d="M 422.99018,0 H 6422.9902 V 1270 H 422.99018 Z"
         id="path5-6" />
      <path
         fill="#e40303"
         d="M 422.99018,0 H 6422.9902 V 875.84673 H 422.99018 Z"
         id="path6-2"
         style="stroke-width:1.17443" />
    </g>
    <g
       id="g43"
       style="display:inline"
       transform="matrix(0.84413484,0.06883421,-0.0692391,0.84910016,109.38894,181.23477)"
       inkscape:path-effect="#path-effect43"
       inkscape:label="Trans">
      <path
         id="path7-6"
         d="M 902.98667,3809.9973 H 1382.9916 L 2968.3246,1949.5042 902.98667,1905.0026 Z M 604.29423,125.49512 1078.0313,48.177884 2942.3436,1629.0177 911.14299,2005.6144 Z"
         inkscape:original-d="m 902.98667,3809.9973 480.00493,0 1585.333,-1860.4931 -2065.33793,-44.5016 z"
         style="fill:#000000;fill-opacity:1"
         sodipodi:nodetypes="ccccc" />
      <path
         id="path8-1"
         d="M 421.98973,3809.9973 1063.8694,3633.2217 2967.8746,1728.227 421.98973,1905.0026 Z M 129.57814,202.97214 791.55047,274.04805 2977.542,1847.478 436.4269,2083.0915 Z"
         inkscape:original-d="M 421.98973,3809.9973 1063.8694,3633.2217 2967.8746,1728.227 421.98973,1905.0026 Z"
         style="fill:#613915;fill-opacity:1"
         sodipodi:nodetypes="ccccc" />
      <path
         id="path9-8"
         d="M 421.98973,3809.9973 2334.9871,1905.0026 H 421.98973 Z M 129.57814,202.97214 2324.4444,1774.9537 436.4269,2083.0915 Z"
         inkscape:original-d="M 421.98973,3809.9973 2334.9871,1905.0026 H 421.98973 Z"
         style="fill:#74d7ee;fill-opacity:1" />
      <path
         id="path10"
         d="M 421.98973,3330.0027 1842.9927,1905.0026 H 421.98973 Z M 206.89371,676.69898 1838.8744,1854.2021 436.4269,2083.0915 Z"
         inkscape:original-d="M 421.98973,3330.0027 1842.9927,1905.0026 H 421.98973 Z"
         style="fill:#ffafc8;fill-opacity:1" />
      <path
         id="path11"
         d="M 421.98973,2850.001 1372.9932,1905.0026 H 421.98973 Z M 284.21042,1150.4328 1375.0122,1929.9077 436.4269,2083.0915 Z"
         inkscape:original-d="M 421.98973,2850.001 1372.9932,1905.0026 H 421.98973 Z"
         style="fill:#ffffff" />
    </g>
  </g>
</svg>
