<svg xmlns="http://www.w3.org/2000/svg"
     viewBox="0 0 20.154915 2.38443"
     fill="currentColor"
     role="img"
     aria-hidden="true">
  <g transform="translate(-5.6349994,-7.9626751)">
    <path d="m 25.208889,10.3471 q -0.08573,0 -0.17145,-0.01905 -0.08255,-0.01905 -0.1524,-0.06668 -0.06985,-0.04763 -0.123825,-0.1143 -0.0508,-0.06985 -0.07937,-0.14605 v 0.32068 h -0.26353 V 7.9880751 h 0.263525 v 1.0033 q 0.02858,-0.0762 0.07937,-0.142875 0.05398,-0.06985 0.123825,-0.117475 0.06985,-0.047625 0.1524,-0.066675 0.08573,-0.01905 0.17145,-0.01905 0.08573,0 0.168275,0.022225 0.08573,0.01905 0.155575,0.066675 0.06985,0.047625 0.12065,0.117475 0.05397,0.06985 0.08255,0.149225 0.03175,0.079375 0.04128,0.1651 0.0127,0.085725 0.0127,0.17145 v 0.3175 q 0,0.085725 -0.0127,0.17145 -0.0095,0.085725 -0.04128,0.1651 -0.02858,0.079375 -0.08255,0.1492249 -0.0508,0.06985 -0.12065,0.117475 -0.06985,0.04763 -0.155575,0.06668 -0.08255,0.02222 -0.168275,0.02222 z m -0.104775,-0.23495 q 0.06033,0 0.117475,-0.0095 0.06032,-0.0127 0.111125,-0.04128 0.0508,-0.03175 0.0889,-0.0762 0.04127,-0.04445 0.0635,-0.098425 0.0254,-0.053975 0.03175,-0.111125 0.0095,-0.060325 0.0095,-0.12065 v -0.3175 q 0,-0.060325 -0.0095,-0.117475 -0.0064,-0.060325 -0.03175,-0.1143 -0.02222,-0.053975 -0.0635,-0.098425 -0.0381,-0.04445 -0.0889,-0.073025 -0.0508,-0.03175 -0.111125,-0.041275 -0.05715,-0.0127 -0.117475,-0.0127 -0.06032,0 -0.12065,0.0127 -0.05715,0.00953 -0.10795,0.041275 -0.0508,0.028575 -0.09207,0.073025 -0.0381,0.04445 -0.0635,0.098425 -0.02222,0.053975 -0.03175,0.1143 -0.0064,0.05715 -0.0064,0.117475 v 0.3175 q 0,0.060325 0.0064,0.12065 0.0095,0.05715 0.03175,0.111125 0.0254,0.053975 0.0635,0.098425 0.04127,0.04445 0.09207,0.0762 0.0508,0.02858 0.10795,0.04128 0.06032,0.0095 0.12065,0.0095 z"/>
    <path d="m 23.386439,10.3471 q -0.06985,0 -0.1397,-0.0095 -0.06985,-0.0063 -0.136525,-0.02858 -0.06668,-0.0254 -0.127,-0.0635 -0.05715,-0.0381 -0.09842,-0.09525 -0.04128,-0.05715 -0.06033,-0.123825 -0.01905,-0.06985 -0.01905,-0.1396999 0,-0.0889 0.02858,-0.174625 0.02858,-0.085725 0.08573,-0.149225 0.06033,-0.0635 0.1397,-0.104775 0.07937,-0.04445 0.161925,-0.066675 0.08573,-0.0254 0.17145,-0.034925 0.0889,-0.00953 0.1778,-0.00953 h 0.346075 v -0.127 q 0,-0.0508 -0.0127,-0.1016 -0.0127,-0.0508 -0.04127,-0.092075 -0.02858,-0.041275 -0.07303,-0.06985 -0.04127,-0.03175 -0.0889,-0.047625 -0.04763,-0.01905 -0.09842,-0.0254 -0.0508,-0.00635 -0.1016,-0.00635 -0.04445,0 -0.09207,0.00317 -0.04445,0.00318 -0.0889,0.015875 -0.04127,0.00953 -0.08573,0.028575 -0.04127,0.015875 -0.0762,0.047625 -0.03175,0.028575 -0.05397,0.06985 -0.01905,0.041275 -0.01905,0.085725 v 0.00318 h -0.26035 v -0.00635 q 0,-0.0762 0.02858,-0.149225 0.02858,-0.0762 0.07938,-0.13335 0.0508,-0.05715 0.117475,-0.09525 0.06985,-0.041275 0.142875,-0.0635 0.0762,-0.022225 0.1524,-0.028575 0.0762,-0.00953 0.155575,-0.00953 0.08255,0 0.1651,0.0127 0.08573,0.00953 0.161925,0.041275 0.07938,0.028575 0.149225,0.079375 0.06985,0.0508 0.1143,0.12065 0.04763,0.06985 0.06668,0.155575 0.01905,0.08255 0.01905,0.1651 V 10.3217 h -0.26035 v -0.288925 q -0.03175,0.0762 -0.0889,0.1397 -0.05397,0.06032 -0.127,0.1016 -0.06985,0.04128 -0.1524,0.05715 -0.07937,0.01587 -0.161925,0.01587 z m 0.1016,-0.231775 q 0.05398,0 0.10795,-0.0064 0.05715,-0.0095 0.10795,-0.03175 0.0508,-0.02223 0.09208,-0.05715 0.04445,-0.0381 0.06985,-0.085725 0.02858,-0.047625 0.0381,-0.1016 0.0127,-0.05715 0.0127,-0.111125 V 9.5787 h -0.346075 q -0.05397,0 -0.10795,0.00317 -0.0508,0.00318 -0.104775,0.015875 -0.05397,0.00953 -0.104775,0.028575 -0.0508,0.01905 -0.09525,0.0508 -0.04127,0.03175 -0.06668,0.079375 -0.0254,0.047625 -0.0254,0.1016 0,0.047625 0.01905,0.092075 0.01905,0.041275 0.05397,0.073025 0.03493,0.02857 0.0762,0.04762 0.04445,0.01588 0.0889,0.02858 0.04763,0.0095 0.09207,0.0127 0.04763,0.0032 0.09208,0.0032 z"/>
    <path d="M 21.383015,10.3217 V 7.9880751 H 21.64654 V 10.08675 h 0.962025 v 0.23495 z"/>
    <path d="m 18.738239,10.3471 q -0.08573,0 -0.17145,-0.0127 -0.08255,-0.0095 -0.1651,-0.0381 -0.07938,-0.03175 -0.149225,-0.08255 -0.06985,-0.0508 -0.117475,-0.12065 -0.04763,-0.06985 -0.07303,-0.1523999 -0.0254,-0.08255 -0.0254,-0.168275 v -0.022225 h 0.263525 v 0.0127 q 0,0.079375 0.03493,0.1524 0.0381,0.073025 0.1016,0.1206499 0.06668,0.04445 0.142875,0.06033 0.07938,0.01587 0.15875,0.01587 0.07937,0 0.15875,-0.01587 0.08255,-0.01905 0.14605,-0.06668 0.0635,-0.0508 0.09842,-0.1238249 0.0381,-0.0762 0.0381,-0.15875 0,-0.085725 -0.04445,-0.1651 -0.04128,-0.079375 -0.10795,-0.13335 -0.06668,-0.05715 -0.14605,-0.092075 -0.07937,-0.0381 -0.161925,-0.06985 -0.07937,-0.034925 -0.15875,-0.06985 -0.0762,-0.0381 -0.149225,-0.085725 -0.07303,-0.047625 -0.136525,-0.10795 -0.0635,-0.060325 -0.111125,-0.13335 -0.04445,-0.073025 -0.06985,-0.15875 -0.0254,-0.085725 -0.0254,-0.17145 0,-0.085725 0.02222,-0.168275 0.02222,-0.08255 0.06668,-0.1524 0.04445,-0.073025 0.111125,-0.127 0.06668,-0.05715 0.142875,-0.0889 0.07937,-0.034925 0.161925,-0.047625 0.08573,-0.0127 0.17145,-0.0127 0.08255,0 0.1651,0.0127 0.08573,0.00953 0.161925,0.041275 0.07937,0.03175 0.14605,0.085725 0.06668,0.0508 0.111125,0.12065 0.04763,0.06985 0.06985,0.1524 0.02223,0.079375 0.02223,0.161925 v 0.022225 h -0.263525 v -0.0127 q 0,-0.0762 -0.03175,-0.14605 -0.03175,-0.073025 -0.09208,-0.12065 -0.06032,-0.047625 -0.136525,-0.0635 -0.0762,-0.01905 -0.1524,-0.01905 -0.0762,0 -0.155575,0.01905 -0.0762,0.01905 -0.136525,0.06985 -0.06032,0.047625 -0.09208,0.123825 -0.03175,0.073025 -0.03175,0.149225 0,0.0889 0.04127,0.168275 0.04445,0.079375 0.10795,0.136525 0.06668,0.053975 0.14605,0.092075 0.08255,0.034925 0.161925,0.06985 0.07937,0.03175 0.15875,0.06985 0.07937,0.034925 0.1524,0.08255 0.07302,0.047625 0.136525,0.10795 0.0635,0.060325 0.10795,0.13335 0.04763,0.073025 0.07303,0.15875 0.0254,0.08255 0.0254,0.168275 0,0.0889 -0.0254,0.174625 -0.02222,0.08255 -0.06985,0.1555749 -0.04763,0.07302 -0.117475,0.127 -0.06985,0.05398 -0.149225,0.08573 -0.07938,0.03175 -0.168275,0.04445 -0.08573,0.0127 -0.17145,0.0127 z"/>
    <path d="M 17.458317,10.3217 V 7.9880751 h 0.26035 V 10.3217 Z"/>
    <path d="M 15.804143,10.3217 V 7.9880751 h 0.733425 q 0.0889,0 0.1778,0.01905 0.0889,0.015875 0.1651,0.060325 0.0762,0.04445 0.136525,0.1143 0.06033,0.066675 0.09525,0.149225 0.03493,0.079375 0.04763,0.168275 0.01588,0.0889 0.01588,0.1778 0,0.111125 -0.0254,0.225425 -0.02222,0.111125 -0.08573,0.206375 -0.06032,0.09525 -0.15875,0.15875 -0.09843,0.0635 -0.20955,0.085725 l 0.53022,0.9683749 h -0.2921 L 16.410568,9.3628501 h -0.3429 V 10.3217 Z m 0.733425,-1.1906249 q 0.05715,0 0.111125,-0.0127 0.05397,-0.015875 0.09842,-0.047625 0.04763,-0.03175 0.07937,-0.0762 0.03493,-0.047625 0.05398,-0.098425 0.01905,-0.053975 0.0254,-0.10795 0.0063,-0.05715 0.0063,-0.111125 0,-0.05715 -0.0063,-0.111125 -0.0064,-0.05715 -0.0254,-0.10795 -0.01905,-0.053975 -0.05398,-0.098425 -0.03175,-0.047625 -0.07937,-0.079375 -0.04445,-0.03175 -0.09842,-0.04445 -0.05398,-0.015875 -0.111125,-0.015875 h -0.4699 v 0.911225 z"/>
    <path d="M 15.226675,10.3217 V 7.9880751 h 0.26035 V 10.3217 Z"/>
    <path d="m 14.242424,10.3471 q -0.08573,0 -0.17145,-0.0127 -0.08255,-0.0095 -0.1651,-0.0381 -0.07938,-0.03175 -0.149225,-0.08255 -0.06985,-0.0508 -0.117475,-0.12065 -0.04763,-0.06985 -0.07303,-0.1523999 -0.0254,-0.08255 -0.0254,-0.168275 v -0.022225 h 0.263525 v 0.0127 q 0,0.079375 0.03493,0.1524 0.0381,0.073025 0.1016,0.1206499 0.06668,0.04445 0.142875,0.06033 0.07938,0.01587 0.15875,0.01587 0.07938,0 0.15875,-0.01587 0.08255,-0.01905 0.14605,-0.06668 0.0635,-0.0508 0.09843,-0.1238249 0.0381,-0.0762 0.0381,-0.15875 0,-0.085725 -0.04445,-0.1651 -0.04127,-0.079375 -0.10795,-0.13335 -0.06668,-0.05715 -0.14605,-0.092075 -0.07938,-0.0381 -0.161925,-0.06985 -0.07937,-0.034925 -0.15875,-0.06985 -0.0762,-0.0381 -0.149225,-0.085725 -0.07303,-0.047625 -0.136525,-0.10795 -0.0635,-0.060325 -0.111125,-0.13335 -0.04445,-0.073025 -0.06985,-0.15875 -0.0254,-0.085725 -0.0254,-0.17145 0,-0.085725 0.02222,-0.168275 0.02223,-0.08255 0.06668,-0.1524 0.04445,-0.073025 0.111125,-0.127 0.06668,-0.05715 0.142875,-0.0889 0.07937,-0.034925 0.161925,-0.047625 0.08573,-0.0127 0.17145,-0.0127 0.08255,0 0.1651,0.0127 0.08573,0.00953 0.161925,0.041275 0.07938,0.03175 0.14605,0.085725 0.06668,0.0508 0.111125,0.12065 0.04763,0.06985 0.06985,0.1524 0.02222,0.079375 0.02222,0.161925 v 0.022225 h -0.263525 v -0.0127 q 0,-0.0762 -0.03175,-0.14605 -0.03175,-0.073025 -0.09207,-0.12065 -0.06033,-0.047625 -0.136525,-0.0635 -0.0762,-0.01905 -0.1524,-0.01905 -0.0762,0 -0.155575,0.01905 -0.0762,0.01905 -0.136525,0.06985 -0.06032,0.047625 -0.09207,0.123825 -0.03175,0.073025 -0.03175,0.149225 0,0.0889 0.04128,0.168275 0.04445,0.079375 0.10795,0.136525 0.06668,0.053975 0.14605,0.092075 0.08255,0.034925 0.161925,0.06985 0.07938,0.03175 0.15875,0.06985 0.07938,0.034925 0.1524,0.08255 0.07303,0.047625 0.136525,0.10795 0.0635,0.060325 0.10795,0.13335 0.04763,0.073025 0.07302,0.15875 0.0254,0.08255 0.0254,0.168275 0,0.0889 -0.0254,0.174625 -0.02223,0.08255 -0.06985,0.1555749 -0.04763,0.07302 -0.117475,0.127 -0.06985,0.05398 -0.149225,0.08573 -0.07937,0.03175 -0.168275,0.04445 -0.08573,0.0127 -0.17145,0.0127 z"/>
    <path d="m 12.6581,10.3471 q -0.09207,0 -0.18415,-0.01587 -0.09207,-0.01587 -0.174625,-0.05397 -0.08255,-0.0381 -0.1524,-0.1016 Q 12.080245,10.10898 12.0358,10.02961 11.99452,9.94706 11.97547,9.8549851 11.9596,9.7629101 11.9596,9.6708351 v -1.031875 q 0,-0.092075 0.01587,-0.18415 0.01905,-0.092075 0.06033,-0.17145 0.04445,-0.08255 0.111125,-0.14605 0.06985,-0.066675 0.1524,-0.104775 0.08255,-0.0381 0.174625,-0.053975 0.09207,-0.015875 0.18415,-0.015875 0.09208,0 0.18415,0.015875 0.09207,0.015875 0.174625,0.053975 0.08255,0.0381 0.149225,0.104775 0.06985,0.0635 0.111125,0.14605 0.04445,0.079375 0.06033,0.17145 0.01905,0.092075 0.01905,0.18415 v 1.031875 q 0,0.092075 -0.01905,0.18415 -0.01587,0.092075 -0.06033,0.1746249 -0.04127,0.07937 -0.111125,0.14605 -0.06668,0.0635 -0.149225,0.1016 -0.08255,0.0381 -0.174625,0.05397 -0.09207,0.01587 -0.18415,0.01587 z m 0,-0.23495 q 0.06033,0 0.117475,-0.0095 0.05715,-0.0095 0.10795,-0.03492 0.05397,-0.02858 0.09525,-0.06985 0.04445,-0.04445 0.06985,-0.09525 0.0254,-0.053975 0.03493,-0.111125 0.0095,-0.060325 0.0095,-0.12065 V 8.63898 q 0,-0.060325 -0.0095,-0.117475 -0.0095,-0.060325 -0.03493,-0.111125 -0.0254,-0.053975 -0.06985,-0.09525 -0.04128,-0.04445 -0.09525,-0.06985 -0.0508,-0.028575 -0.10795,-0.0381 -0.05715,-0.00953 -0.117475,-0.00953 -0.06032,0 -0.117475,0.00953 -0.05715,0.00953 -0.111125,0.0381 -0.0508,0.0254 -0.09525,0.06985 -0.04128,0.041275 -0.06668,0.09525 -0.0254,0.0508 -0.03493,0.111125 -0.0095,0.05715 -0.0095,0.117475 v 1.031875 q 0,0.060325 0.0095,0.12065 0.0095,0.05715 0.03493,0.111125 0.0254,0.0508 0.06668,0.09525 0.04445,0.041275 0.09525,0.06985 0.05397,0.0254 0.111125,0.03492 0.05715,0.0095 0.117475,0.0095 z"/>
    <path d="m 9.4830996,10.3471 q -0.0889,0 -0.180975,-0.01587 -0.0889,-0.01587 -0.17145,-0.05715 -0.079375,-0.04128 -0.14605,-0.104775 -0.0635,-0.06668 -0.104775,-0.14605 -0.0381,-0.08255 -0.053975,-0.1714499 -0.015875,-0.0889 -0.015875,-0.180975 v -1.68275 h 0.263525 v 1.68275 q 0,0.05715 0.00635,0.1143 0.00953,0.05715 0.03175,0.111125 0.0254,0.0508 0.0635,0.09525 0.0381,0.04445 0.085725,0.073025 0.0508,0.0254 0.10795,0.0381 0.05715,0.0095 0.1143,0.0095 0.05715,0 0.1143,-0.0095 0.05715,-0.0127 0.104775,-0.0381 0.0508,-0.02858 0.0889,-0.073025 0.0381,-0.04445 0.060325,-0.09525 0.0254,-0.053975 0.03175,-0.111125 0.00953,-0.05715 0.00953,-0.1143 v -1.68275 H 10.1562 v 1.68275 q 0,0.092075 -0.01587,0.180975 -0.01588,0.0889 -0.05715,0.1714499 -0.0381,0.07937 -0.1047754,0.14605 -0.0635,0.0635 -0.14605,0.104775 -0.079375,0.04128 -0.17145,0.05715 -0.0889,0.01587 -0.1778,0.01587 z"/>
    <path d="M 7.7654245,10.3217 V 9.3882501 l -0.606425,-1.400175 h 0.288925 l 0.447675,1.082675 0.447675,-1.082675 h 0.288925 l -0.606425,1.400175 V 10.3217 Z"/>
    <path d="M 5.6349994,10.3217 V 7.9880751 h 0.32385 l 0.790575,1.958975 q -0.00635,-0.254 -0.01905,-0.511175 -0.0127,-0.257175 -0.0127,-0.51435 v -0.93345 h 0.263525 V 10.3217 h -0.32385 L 5.8667744,8.3627251 q 0.00635,0.254 0.01905,0.511175 0.0127,0.257175 0.0127,0.51435 V 10.3217 Z"/>
  </g>
</svg>
