<?xml version="1.0" encoding="utf-8"?>
<!DOCTYPE svg PUBLIC "-//W3C//DTD SVG 1.1//EN" "http://www.w3.org/Graphics/SVG/1.1/DTD/svg11.dtd">
<svg version="1.1" id="Layer_1" xmlns="http://www.w3.org/2000/svg" xmlns:xlink="http://www.w3.org/1999/xlink" x="0px" y="0px"
width="1155px" height="1155px" viewBox="0 0 1155 1155" enable-background="new 0 0 1155 1155" xml:space="preserve">
<rect x="0" y="0" width="1155" height="1155" fill="rgb(255,255,255)" /><g transform="translate(70,70)"><g transform="translate(280,0) scale(0.07,0.07)"><g transform="" style="fill: rgb(0, 0, 0);">
<path d="M250,38.5c116.813,0,211.5,94.693,211.5,211.5c0,116.813-94.687,211.5-211.5,211.5c-116.807,0-211.5-94.687-211.5-211.5
	C38.5,133.193,133.193,38.5,250,38.5z"/>
</g></g><g transform="translate(455,0) scale(0.07,0.07)"><g transform="" style="fill: rgb(0, 0, 0);">
<path d="M250,38.5c116.813,0,211.5,94.693,211.5,211.5c0,116.813-94.687,211.5-211.5,211.5c-116.807,0-211.5-94.687-211.5-211.5
	C38.5,133.193,133.193,38.5,250,38.5z"/>
</g></g><g transform="translate(525,0) scale(0.07,0.07)"><g transform="" style="fill: rgb(0, 0, 0);">
<path d="M250,38.5c116.813,0,211.5,94.693,211.5,211.5c0,116.813-94.687,211.5-211.5,211.5c-116.807,0-211.5-94.687-211.5-211.5
	C38.5,133.193,133.193,38.5,250,38.5z"/>
</g></g><g transform="translate(665,0) scale(0.07,0.07)"><g transform="" style="fill: rgb(0, 0, 0);">
<path  d="M470,38.5h-47c0,0-29.157,0-66.5,0c-5.711,0-11.611,0-17.63,0c-47.461,0-102.168,0-127.37,0
	C94.65,38.5,0,133.222,0,250c0,116.765,94.65,211.5,211.5,211.5c31.48,0,83.041,0,127.37,0c6.035,0,11.932,0,17.63,0
	c37.686,0,66.5,0,66.5,0h47h30v-423H470z"/>
</g></g><g transform="translate(700,0) scale(0.07,0.07)"><g transform="" style="fill: rgb(0, 0, 0);">
<path d="M288.5,38.5c-42.907,0-123.188,0-171.55,0c-23.857,0-39.95,0-39.95,0H59.5H30H0v423h30h29.5H77c0,0,16.216,0,39.95,0
	c51.332,0,137.84,0,171.55,0C405.301,461.5,500,366.8,500,250C500,133.191,405.301,38.5,288.5,38.5z"/>
</g></g><g transform="translate(280,35) scale(0.07,0.07)"><g transform="" style="fill: rgb(0, 0, 0);">
<path d="M250,38.5c116.813,0,211.5,94.693,211.5,211.5c0,116.813-94.687,211.5-211.5,211.5c-116.807,0-211.5-94.687-211.5-211.5
	C38.5,133.193,133.193,38.5,250,38.5z"/>
</g></g><g transform="translate(350,35) scale(0.07,0.07)"><g transform="" style="fill: rgb(0, 0, 0);">
<path d="M250,38.5c116.813,0,211.5,94.693,211.5,211.5c0,116.813-94.687,211.5-211.5,211.5c-116.807,0-211.5-94.687-211.5-211.5
	C38.5,133.193,133.193,38.5,250,38.5z"/>
</g></g><g transform="translate(420,35) scale(0.07,0.07)"><g transform="" style="fill: rgb(0, 0, 0);">
<path  d="M470,38.5h-47c0,0-29.157,0-66.5,0c-5.711,0-11.611,0-17.63,0c-47.461,0-102.168,0-127.37,0
	C94.65,38.5,0,133.222,0,250c0,116.765,94.65,211.5,211.5,211.5c31.48,0,83.041,0,127.37,0c6.035,0,11.932,0,17.63,0
	c37.686,0,66.5,0,66.5,0h47h30v-423H470z"/>
</g></g><g transform="translate(455,35) scale(0.07,0.07)"><g transform="" style="fill: rgb(0, 0, 0);">
<path d="M288.5,38.5c-42.907,0-123.188,0-171.55,0c-23.857,0-39.95,0-39.95,0H59.5H30H0v423h30h29.5H77c0,0,16.216,0,39.95,0
	c51.332,0,137.84,0,171.55,0C405.301,461.5,500,366.8,500,250C500,133.191,405.301,38.5,288.5,38.5z"/>
</g></g><g transform="translate(630,35) scale(0.07,0.07)"><g transform="" style="fill: rgb(0, 0, 0);">
<path d="M250,38.5c116.813,0,211.5,94.693,211.5,211.5c0,116.813-94.687,211.5-211.5,211.5c-116.807,0-211.5-94.687-211.5-211.5
	C38.5,133.193,133.193,38.5,250,38.5z"/>
</g></g><g transform="translate(700,35) scale(0.07,0.07)"><g transform="" style="fill: rgb(0, 0, 0);">
<path d="M250,38.5c116.813,0,211.5,94.693,211.5,211.5c0,116.813-94.687,211.5-211.5,211.5c-116.807,0-211.5-94.687-211.5-211.5
	C38.5,133.193,133.193,38.5,250,38.5z"/>
</g></g><g transform="translate(315,70) scale(0.07,0.07)"><g transform="" style="fill: rgb(0, 0, 0);">
<path d="M250,38.5c116.813,0,211.5,94.693,211.5,211.5c0,116.813-94.687,211.5-211.5,211.5c-116.807,0-211.5-94.687-211.5-211.5
	C38.5,133.193,133.193,38.5,250,38.5z"/>
</g></g><g transform="translate(420,70) scale(0.07,0.07)"><g transform="" style="fill: rgb(0, 0, 0);">
<path d="M250,38.5c116.813,0,211.5,94.693,211.5,211.5c0,116.813-94.687,211.5-211.5,211.5c-116.807,0-211.5-94.687-211.5-211.5
	C38.5,133.193,133.193,38.5,250,38.5z"/>
</g></g><g transform="translate(525,70) scale(0.07,0.07)"><g transform="" style="fill: rgb(0, 0, 0);">
<path  d="M470,38.5h-47c0,0-29.157,0-66.5,0c-5.711,0-11.611,0-17.63,0c-47.461,0-102.168,0-127.37,0
	C94.65,38.5,0,133.222,0,250c0,116.765,94.65,211.5,211.5,211.5c31.48,0,83.041,0,127.37,0c6.035,0,11.932,0,17.63,0
	c37.686,0,66.5,0,66.5,0h47h30v-423H470z"/>
</g></g><g transform="translate(560,70) scale(0.07,0.07)"><g transform="" style="fill: rgb(0, 0, 0);">
<path d="M288.5,38.5c-42.907,0-123.188,0-171.55,0c-23.857,0-39.95,0-39.95,0H59.5H30H0v423h30h29.5H77c0,0,16.216,0,39.95,0
	c51.332,0,137.84,0,171.55,0C405.301,461.5,500,366.8,500,250C500,133.191,405.301,38.5,288.5,38.5z"/>
</g></g><g transform="translate(700,70) scale(0.07,0.07)"><g transform="" style="fill: rgb(0, 0, 0);">
<path d="M250,38.5c116.813,0,211.5,94.693,211.5,211.5c0,116.813-94.687,211.5-211.5,211.5c-116.807,0-211.5-94.687-211.5-211.5
	C38.5,133.193,133.193,38.5,250,38.5z"/>
</g></g><g transform="translate(280,105) scale(0.07,0.07)"><g transform="" style="fill: rgb(0, 0, 0);">
<path d="M250,38.5c116.813,0,211.5,94.693,211.5,211.5c0,116.813-94.687,211.5-211.5,211.5c-116.807,0-211.5-94.687-211.5-211.5
	C38.5,133.193,133.193,38.5,250,38.5z"/>
</g></g><g transform="translate(350,105) scale(0.07,0.07)"><g transform="" style="fill: rgb(0, 0, 0);">
<path d="M250,38.5c116.813,0,211.5,94.693,211.5,211.5c0,116.813-94.687,211.5-211.5,211.5c-116.807,0-211.5-94.687-211.5-211.5
	C38.5,133.193,133.193,38.5,250,38.5z"/>
</g></g><g transform="translate(490,105) scale(0.07,0.07)"><g transform="" style="fill: rgb(0, 0, 0);">
<path  d="M470,38.5h-47c0,0-29.157,0-66.5,0c-5.711,0-11.611,0-17.63,0c-47.461,0-102.168,0-127.37,0
	C94.65,38.5,0,133.222,0,250c0,116.765,94.65,211.5,211.5,211.5c31.48,0,83.041,0,127.37,0c6.035,0,11.932,0,17.63,0
	c37.686,0,66.5,0,66.5,0h47h30v-423H470z"/>
</g></g><g transform="translate(525,105) scale(0.07,0.07)"><g transform="" style="fill: rgb(0, 0, 0);">
<path d="M288.5,38.5c-42.907,0-123.188,0-171.55,0c-23.857,0-39.95,0-39.95,0H59.5H30H0v423h30h29.5H77c0,0,16.216,0,39.95,0
	c51.332,0,137.84,0,171.55,0C405.301,461.5,500,366.8,500,250C500,133.191,405.301,38.5,288.5,38.5z"/>
</g></g><g transform="translate(595,105) scale(0.07,0.07)"><g transform="" style="fill: rgb(0, 0, 0);">
<path d="M250,38.5c116.813,0,211.5,94.693,211.5,211.5c0,116.813-94.687,211.5-211.5,211.5c-116.807,0-211.5-94.687-211.5-211.5
	C38.5,133.193,133.193,38.5,250,38.5z"/>
</g></g><g transform="translate(665,105) scale(0.07,0.07)"><g transform="" style="fill: rgb(0, 0, 0);">
<path d="M250,38.5c116.813,0,211.5,94.693,211.5,211.5c0,116.813-94.687,211.5-211.5,211.5c-116.807,0-211.5-94.687-211.5-211.5
	C38.5,133.193,133.193,38.5,250,38.5z"/>
</g></g><g transform="translate(490,140) scale(0.07,0.07)"><g transform="" style="fill: rgb(0, 0, 0);">
<path  d="M470,38.5h-47c0,0-29.157,0-66.5,0c-5.711,0-11.611,0-17.63,0c-47.461,0-102.168,0-127.37,0
	C94.65,38.5,0,133.222,0,250c0,116.765,94.65,211.5,211.5,211.5c31.48,0,83.041,0,127.37,0c6.035,0,11.932,0,17.63,0
	c37.686,0,66.5,0,66.5,0h47h30v-423H470z"/>
</g></g><g transform="translate(525,140) scale(0.07,0.07)"><g transform="" style="fill: rgb(0, 0, 0);">
<polygon points="250,38.5 0,38.5 0,461.5 250,461.5 500,461.5 500,38.5 "/>
</g></g><g transform="translate(560,140) scale(0.07,0.07)"><g transform="" style="fill: rgb(0, 0, 0);">
<path d="M288.5,38.5c-42.907,0-123.188,0-171.55,0c-23.857,0-39.95,0-39.95,0H59.5H30H0v423h30h29.5H77c0,0,16.216,0,39.95,0
	c51.332,0,137.84,0,171.55,0C405.301,461.5,500,366.8,500,250C500,133.191,405.301,38.5,288.5,38.5z"/>
</g></g><g transform="translate(665,140) scale(0.07,0.07)"><g transform="" style="fill: rgb(0, 0, 0);">
<path d="M250,38.5c116.813,0,211.5,94.693,211.5,211.5c0,116.813-94.687,211.5-211.5,211.5c-116.807,0-211.5-94.687-211.5-211.5
	C38.5,133.193,133.193,38.5,250,38.5z"/>
</g></g><g transform="translate(350,175) scale(0.07,0.07)"><g transform="" style="fill: rgb(0, 0, 0);">
<path d="M250,38.5c116.813,0,211.5,94.693,211.5,211.5c0,116.813-94.687,211.5-211.5,211.5c-116.807,0-211.5-94.687-211.5-211.5
	C38.5,133.193,133.193,38.5,250,38.5z"/>
</g></g><g transform="translate(455,175) scale(0.07,0.07)"><g transform="" style="fill: rgb(0, 0, 0);">
<path d="M250,38.5c116.813,0,211.5,94.693,211.5,211.5c0,116.813-94.687,211.5-211.5,211.5c-116.807,0-211.5-94.687-211.5-211.5
	C38.5,133.193,133.193,38.5,250,38.5z"/>
</g></g><g transform="translate(665,175) scale(0.07,0.07)"><g transform="" style="fill: rgb(0, 0, 0);">
<path  d="M470,38.5h-47c0,0-29.157,0-66.5,0c-5.711,0-11.611,0-17.63,0c-47.461,0-102.168,0-127.37,0
	C94.65,38.5,0,133.222,0,250c0,116.765,94.65,211.5,211.5,211.5c31.48,0,83.041,0,127.37,0c6.035,0,11.932,0,17.63,0
	c37.686,0,66.5,0,66.5,0h47h30v-423H470z"/>
</g></g><g transform="translate(700,175) scale(0.07,0.07)"><g transform="" style="fill: rgb(0, 0, 0);">
<path d="M288.5,38.5c-42.907,0-123.188,0-171.55,0c-23.857,0-39.95,0-39.95,0H59.5H30H0v423h30h29.5H77c0,0,16.216,0,39.95,0
	c51.332,0,137.84,0,171.55,0C405.301,461.5,500,366.8,500,250C500,133.191,405.301,38.5,288.5,38.5z"/>
</g></g><g transform="translate(280,210) scale(0.07,0.07)"><g transform="" style="fill: rgb(0, 0, 0);">
<path d="M250,38.5c116.813,0,211.5,94.693,211.5,211.5c0,116.813-94.687,211.5-211.5,211.5c-116.807,0-211.5-94.687-211.5-211.5
	C38.5,133.193,133.193,38.5,250,38.5z"/>
</g></g><g transform="translate(350,210) scale(0.07,0.07)"><g transform="" style="fill: rgb(0, 0, 0);">
<path d="M250,38.5c116.813,0,211.5,94.693,211.5,211.5c0,116.813-94.687,211.5-211.5,211.5c-116.807,0-211.5-94.687-211.5-211.5
	C38.5,133.193,133.193,38.5,250,38.5z"/>
</g></g><g transform="translate(420,210) scale(0.07,0.07)"><g transform="" style="fill: rgb(0, 0, 0);">
<path d="M250,38.5c116.813,0,211.5,94.693,211.5,211.5c0,116.813-94.687,211.5-211.5,211.5c-116.807,0-211.5-94.687-211.5-211.5
	C38.5,133.193,133.193,38.5,250,38.5z"/>
</g></g><g transform="translate(490,210) scale(0.07,0.07)"><g transform="" style="fill: rgb(0, 0, 0);">
<path d="M250,38.5c116.813,0,211.5,94.693,211.5,211.5c0,116.813-94.687,211.5-211.5,211.5c-116.807,0-211.5-94.687-211.5-211.5
	C38.5,133.193,133.193,38.5,250,38.5z"/>
</g></g><g transform="translate(560,210) scale(0.07,0.07)"><g transform="" style="fill: rgb(0, 0, 0);">
<path d="M250,38.5c116.813,0,211.5,94.693,211.5,211.5c0,116.813-94.687,211.5-211.5,211.5c-116.807,0-211.5-94.687-211.5-211.5
	C38.5,133.193,133.193,38.5,250,38.5z"/>
</g></g><g transform="translate(630,210) scale(0.07,0.07)"><g transform="" style="fill: rgb(0, 0, 0);">
<path d="M250,38.5c116.813,0,211.5,94.693,211.5,211.5c0,116.813-94.687,211.5-211.5,211.5c-116.807,0-211.5-94.687-211.5-211.5
	C38.5,133.193,133.193,38.5,250,38.5z"/>
</g></g><g transform="translate(700,210) scale(0.07,0.07)"><g transform="" style="fill: rgb(0, 0, 0);">
<path d="M250,38.5c116.813,0,211.5,94.693,211.5,211.5c0,116.813-94.687,211.5-211.5,211.5c-116.807,0-211.5-94.687-211.5-211.5
	C38.5,133.193,133.193,38.5,250,38.5z"/>
</g></g><g transform="translate(280,245) scale(0.07,0.07)"><g transform="" style="fill: rgb(0, 0, 0);">
<path  d="M470,38.5h-47c0,0-29.157,0-66.5,0c-5.711,0-11.611,0-17.63,0c-47.461,0-102.168,0-127.37,0
	C94.65,38.5,0,133.222,0,250c0,116.765,94.65,211.5,211.5,211.5c31.48,0,83.041,0,127.37,0c6.035,0,11.932,0,17.63,0
	c37.686,0,66.5,0,66.5,0h47h30v-423H470z"/>
</g></g><g transform="translate(315,245) scale(0.07,0.07)"><g transform="" style="fill: rgb(0, 0, 0);">
<polygon points="250,38.5 0,38.5 0,461.5 250,461.5 500,461.5 500,38.5 "/>
</g></g><g transform="translate(350,245) scale(0.07,0.07)"><g transform="" style="fill: rgb(0, 0, 0);">
<polygon points="250,38.5 0,38.5 0,461.5 250,461.5 500,461.5 500,38.5 "/>
</g></g><g transform="translate(385,245) scale(0.07,0.07)"><g transform="" style="fill: rgb(0, 0, 0);">
<polygon points="250,38.5 0,38.5 0,461.5 250,461.5 500,461.5 500,38.5 "/>
</g></g><g transform="translate(420,245) scale(0.07,0.07)"><g transform="" style="fill: rgb(0, 0, 0);">
<path d="M288.5,38.5c-42.907,0-123.188,0-171.55,0c-23.857,0-39.95,0-39.95,0H59.5H30H0v423h30h29.5H77c0,0,16.216,0,39.95,0
	c51.332,0,137.84,0,171.55,0C405.301,461.5,500,366.8,500,250C500,133.191,405.301,38.5,288.5,38.5z"/>
</g></g><g transform="translate(595,245) scale(0.07,0.07)"><g transform="" style="fill: rgb(0, 0, 0);">
<path  d="M470,38.5h-47c0,0-29.157,0-66.5,0c-5.711,0-11.611,0-17.63,0c-47.461,0-102.168,0-127.37,0
	C94.65,38.5,0,133.222,0,250c0,116.765,94.65,211.5,211.5,211.5c31.48,0,83.041,0,127.37,0c6.035,0,11.932,0,17.63,0
	c37.686,0,66.5,0,66.5,0h47h30v-423H470z"/>
</g></g><g transform="translate(630,245) scale(0.07,0.07)"><g transform="" style="fill: rgb(0, 0, 0);">
<path d="M288.5,38.5c-42.907,0-123.188,0-171.55,0c-23.857,0-39.95,0-39.95,0H59.5H30H0v423h30h29.5H77c0,0,16.216,0,39.95,0
	c51.332,0,137.84,0,171.55,0C405.301,461.5,500,366.8,500,250C500,133.191,405.301,38.5,288.5,38.5z"/>
</g></g><g transform="translate(700,245) scale(0.07,0.07)"><g transform="" style="fill: rgb(0, 0, 0);">
<path d="M250,38.5c116.813,0,211.5,94.693,211.5,211.5c0,116.813-94.687,211.5-211.5,211.5c-116.807,0-211.5-94.687-211.5-211.5
	C38.5,133.193,133.193,38.5,250,38.5z"/>
</g></g><g transform="translate(0,280) scale(0.07,0.07)"><g transform="" style="fill: rgb(0, 0, 0);">
<path d="M250,38.5c116.813,0,211.5,94.693,211.5,211.5c0,116.813-94.687,211.5-211.5,211.5c-116.807,0-211.5-94.687-211.5-211.5
	C38.5,133.193,133.193,38.5,250,38.5z"/>
</g></g><g transform="translate(70,280) scale(0.07,0.07)"><g transform="" style="fill: rgb(0, 0, 0);">
<path  d="M470,38.5h-47c0,0-29.157,0-66.5,0c-5.711,0-11.611,0-17.63,0c-47.461,0-102.168,0-127.37,0
	C94.65,38.5,0,133.222,0,250c0,116.765,94.65,211.5,211.5,211.5c31.48,0,83.041,0,127.37,0c6.035,0,11.932,0,17.63,0
	c37.686,0,66.5,0,66.5,0h47h30v-423H470z"/>
</g></g><g transform="translate(105,280) scale(0.07,0.07)"><g transform="" style="fill: rgb(0, 0, 0);">
<path d="M288.5,38.5c-42.907,0-123.188,0-171.55,0c-23.857,0-39.95,0-39.95,0H59.5H30H0v423h30h29.5H77c0,0,16.216,0,39.95,0
	c51.332,0,137.84,0,171.55,0C405.301,461.5,500,366.8,500,250C500,133.191,405.301,38.5,288.5,38.5z"/>
</g></g><g transform="translate(175,280) scale(0.07,0.07)"><g transform="" style="fill: rgb(0, 0, 0);">
<path  d="M470,38.5h-47c0,0-29.157,0-66.5,0c-5.711,0-11.611,0-17.63,0c-47.461,0-102.168,0-127.37,0
	C94.65,38.5,0,133.222,0,250c0,116.765,94.65,211.5,211.5,211.5c31.48,0,83.041,0,127.37,0c6.035,0,11.932,0,17.63,0
	c37.686,0,66.5,0,66.5,0h47h30v-423H470z"/>
</g></g><g transform="translate(210,280) scale(0.07,0.07)"><g transform="" style="fill: rgb(0, 0, 0);">
<polygon points="250,38.5 0,38.5 0,461.5 250,461.5 500,461.5 500,38.5 "/>
</g></g><g transform="translate(245,280) scale(0.07,0.07)"><g transform="" style="fill: rgb(0, 0, 0);">
<path d="M288.5,38.5c-42.907,0-123.188,0-171.55,0c-23.857,0-39.95,0-39.95,0H59.5H30H0v423h30h29.5H77c0,0,16.216,0,39.95,0
	c51.332,0,137.84,0,171.55,0C405.301,461.5,500,366.8,500,250C500,133.191,405.301,38.5,288.5,38.5z"/>
</g></g><g transform="translate(350,280) scale(0.07,0.07)"><g transform="" style="fill: rgb(0, 0, 0);">
<path  d="M470,38.5h-47c0,0-29.157,0-66.5,0c-5.711,0-11.611,0-17.63,0c-47.461,0-102.168,0-127.37,0
	C94.65,38.5,0,133.222,0,250c0,116.765,94.65,211.5,211.5,211.5c31.48,0,83.041,0,127.37,0c6.035,0,11.932,0,17.63,0
	c37.686,0,66.5,0,66.5,0h47h30v-423H470z"/>
</g></g><g transform="translate(385,280) scale(0.07,0.07)"><g transform="" style="fill: rgb(0, 0, 0);">
<path d="M288.5,38.5c-42.907,0-123.188,0-171.55,0c-23.857,0-39.95,0-39.95,0H59.5H30H0v423h30h29.5H77c0,0,16.216,0,39.95,0
	c51.332,0,137.84,0,171.55,0C405.301,461.5,500,366.8,500,250C500,133.191,405.301,38.5,288.5,38.5z"/>
</g></g><g transform="translate(455,280) scale(0.07,0.07)"><g transform="" style="fill: rgb(0, 0, 0);">
<path d="M250,38.5c116.813,0,211.5,94.693,211.5,211.5c0,116.813-94.687,211.5-211.5,211.5c-116.807,0-211.5-94.687-211.5-211.5
	C38.5,133.193,133.193,38.5,250,38.5z"/>
</g></g><g transform="translate(560,280) scale(0.07,0.07)"><g transform="" style="fill: rgb(0, 0, 0);">
<path  d="M470,38.5h-47c0,0-29.157,0-66.5,0c-5.711,0-11.611,0-17.63,0c-47.461,0-102.168,0-127.37,0
	C94.65,38.5,0,133.222,0,250c0,116.765,94.65,211.5,211.5,211.5c31.48,0,83.041,0,127.37,0c6.035,0,11.932,0,17.63,0
	c37.686,0,66.5,0,66.5,0h47h30v-423H470z"/>
</g></g><g transform="translate(595,280) scale(0.07,0.07)"><g transform="" style="fill: rgb(0, 0, 0);">
<polygon points="250,38.5 0,38.5 0,461.5 250,461.5 500,461.5 500,38.5 "/>
</g></g><g transform="translate(630,280) scale(0.07,0.07)"><g transform="" style="fill: rgb(0, 0, 0);">
<path d="M288.5,38.5c-42.907,0-123.188,0-171.55,0c-23.857,0-39.95,0-39.95,0H59.5H30H0v423h30h29.5H77c0,0,16.216,0,39.95,0
	c51.332,0,137.84,0,171.55,0C405.301,461.5,500,366.8,500,250C500,133.191,405.301,38.5,288.5,38.5z"/>
</g></g><g transform="translate(770,280) scale(0.07,0.07)"><g transform="" style="fill: rgb(0, 0, 0);">
<path d="M250,38.5c116.813,0,211.5,94.693,211.5,211.5c0,116.813-94.687,211.5-211.5,211.5c-116.807,0-211.5-94.687-211.5-211.5
	C38.5,133.193,133.193,38.5,250,38.5z"/>
</g></g><g transform="translate(875,280) scale(0.07,0.07)"><g transform="" style="fill: rgb(0, 0, 0);">
<path d="M250,38.5c116.813,0,211.5,94.693,211.5,211.5c0,116.813-94.687,211.5-211.5,211.5c-116.807,0-211.5-94.687-211.5-211.5
	C38.5,133.193,133.193,38.5,250,38.5z"/>
</g></g><g transform="translate(945,280) scale(0.07,0.07)"><g transform="" style="fill: rgb(0, 0, 0);">
<path  d="M470,38.5h-47c0,0-29.157,0-66.5,0c-5.711,0-11.611,0-17.63,0c-47.461,0-102.168,0-127.37,0
	C94.65,38.5,0,133.222,0,250c0,116.765,94.65,211.5,211.5,211.5c31.48,0,83.041,0,127.37,0c6.035,0,11.932,0,17.63,0
	c37.686,0,66.5,0,66.5,0h47h30v-423H470z"/>
</g></g><g transform="translate(980,280) scale(0.07,0.07)"><g transform="" style="fill: rgb(0, 0, 0);">
<path d="M288.5,38.5c-42.907,0-123.188,0-171.55,0c-23.857,0-39.95,0-39.95,0H59.5H30H0v423h30h29.5H77c0,0,16.216,0,39.95,0
	c51.332,0,137.84,0,171.55,0C405.301,461.5,500,366.8,500,250C500,133.191,405.301,38.5,288.5,38.5z"/>
</g></g><g transform="translate(0,315) scale(0.07,0.07)"><g transform="" style="fill: rgb(0, 0, 0);">
<path  d="M470,38.5h-47c0,0-29.157,0-66.5,0c-5.711,0-11.611,0-17.63,0c-47.461,0-102.168,0-127.37,0
	C94.65,38.5,0,133.222,0,250c0,116.765,94.65,211.5,211.5,211.5c31.48,0,83.041,0,127.37,0c6.035,0,11.932,0,17.63,0
	c37.686,0,66.5,0,66.5,0h47h30v-423H470z"/>
</g></g><g transform="translate(35,315) scale(0.07,0.07)"><g transform="" style="fill: rgb(0, 0, 0);">
<path d="M288.5,38.5c-42.907,0-123.188,0-171.55,0c-23.857,0-39.95,0-39.95,0H59.5H30H0v423h30h29.5H77c0,0,16.216,0,39.95,0
	c51.332,0,137.84,0,171.55,0C405.301,461.5,500,366.8,500,250C500,133.191,405.301,38.5,288.5,38.5z"/>
</g></g><g transform="translate(140,315) scale(0.07,0.07)"><g transform="" style="fill: rgb(0, 0, 0);">
<path d="M250,38.5c116.813,0,211.5,94.693,211.5,211.5c0,116.813-94.687,211.5-211.5,211.5c-116.807,0-211.5-94.687-211.5-211.5
	C38.5,133.193,133.193,38.5,250,38.5z"/>
</g></g><g transform="translate(245,315) scale(0.07,0.07)"><g transform="" style="fill: rgb(0, 0, 0);">
<path d="M250,38.5c116.813,0,211.5,94.693,211.5,211.5c0,116.813-94.687,211.5-211.5,211.5c-116.807,0-211.5-94.687-211.5-211.5
	C38.5,133.193,133.193,38.5,250,38.5z"/>
</g></g><g transform="translate(315,315) scale(0.07,0.07)"><g transform="" style="fill: rgb(0, 0, 0);">
<path d="M250,38.5c116.813,0,211.5,94.693,211.5,211.5c0,116.813-94.687,211.5-211.5,211.5c-116.807,0-211.5-94.687-211.5-211.5
	C38.5,133.193,133.193,38.5,250,38.5z"/>
</g></g><g transform="translate(385,315) scale(0.07,0.07)"><g transform="" style="fill: rgb(0, 0, 0);">
<path d="M250,38.5c116.813,0,211.5,94.693,211.5,211.5c0,116.813-94.687,211.5-211.5,211.5c-116.807,0-211.5-94.687-211.5-211.5
	C38.5,133.193,133.193,38.5,250,38.5z"/>
</g></g><g transform="translate(455,315) scale(0.07,0.07)"><g transform="" style="fill: rgb(0, 0, 0);">
<path  d="M470,38.5h-47c0,0-29.157,0-66.5,0c-5.711,0-11.611,0-17.63,0c-47.461,0-102.168,0-127.37,0
	C94.65,38.5,0,133.222,0,250c0,116.765,94.65,211.5,211.5,211.5c31.48,0,83.041,0,127.37,0c6.035,0,11.932,0,17.63,0
	c37.686,0,66.5,0,66.5,0h47h30v-423H470z"/>
</g></g><g transform="translate(490,315) scale(0.07,0.07)"><g transform="" style="fill: rgb(0, 0, 0);">
<path d="M288.5,38.5c-42.907,0-123.188,0-171.55,0c-23.857,0-39.95,0-39.95,0H59.5H30H0v423h30h29.5H77c0,0,16.216,0,39.95,0
	c51.332,0,137.84,0,171.55,0C405.301,461.5,500,366.8,500,250C500,133.191,405.301,38.5,288.5,38.5z"/>
</g></g><g transform="translate(560,315) scale(0.07,0.07)"><g transform="" style="fill: rgb(0, 0, 0);">
<path d="M250,38.5c116.813,0,211.5,94.693,211.5,211.5c0,116.813-94.687,211.5-211.5,211.5c-116.807,0-211.5-94.687-211.5-211.5
	C38.5,133.193,133.193,38.5,250,38.5z"/>
</g></g><g transform="translate(665,315) scale(0.07,0.07)"><g transform="" style="fill: rgb(0, 0, 0);">
<path  d="M470,38.5h-47c0,0-29.157,0-66.5,0c-5.711,0-11.611,0-17.63,0c-47.461,0-102.168,0-127.37,0
	C94.65,38.5,0,133.222,0,250c0,116.765,94.65,211.5,211.5,211.5c31.48,0,83.041,0,127.37,0c6.035,0,11.932,0,17.63,0
	c37.686,0,66.5,0,66.5,0h47h30v-423H470z"/>
</g></g><g transform="translate(700,315) scale(0.07,0.07)"><g transform="" style="fill: rgb(0, 0, 0);">
<polygon points="250,38.5 0,38.5 0,461.5 250,461.5 500,461.5 500,38.5 "/>
</g></g><g transform="translate(735,315) scale(0.07,0.07)"><g transform="" style="fill: rgb(0, 0, 0);">
<polygon points="250,38.5 0,38.5 0,461.5 250,461.5 500,461.5 500,38.5 "/>
</g></g><g transform="translate(770,315) scale(0.07,0.07)"><g transform="" style="fill: rgb(0, 0, 0);">
<polygon points="250,38.5 0,38.5 0,461.5 250,461.5 500,461.5 500,38.5 "/>
</g></g><g transform="translate(805,315) scale(0.07,0.07)"><g transform="" style="fill: rgb(0, 0, 0);">
<polygon points="250,38.5 0,38.5 0,461.5 250,461.5 500,461.5 500,38.5 "/>
</g></g><g transform="translate(840,315) scale(0.07,0.07)"><g transform="" style="fill: rgb(0, 0, 0);">
<path d="M288.5,38.5c-42.907,0-123.188,0-171.55,0c-23.857,0-39.95,0-39.95,0H59.5H30H0v423h30h29.5H77c0,0,16.216,0,39.95,0
	c51.332,0,137.84,0,171.55,0C405.301,461.5,500,366.8,500,250C500,133.191,405.301,38.5,288.5,38.5z"/>
</g></g><g transform="translate(980,315) scale(0.07,0.07)"><g transform="" style="fill: rgb(0, 0, 0);">
<path d="M250,38.5c116.813,0,211.5,94.693,211.5,211.5c0,116.813-94.687,211.5-211.5,211.5c-116.807,0-211.5-94.687-211.5-211.5
	C38.5,133.193,133.193,38.5,250,38.5z"/>
</g></g><g transform="translate(0,350) scale(0.07,0.07)"><g transform="" style="fill: rgb(0, 0, 0);">
<path d="M250,38.5c116.813,0,211.5,94.693,211.5,211.5c0,116.813-94.687,211.5-211.5,211.5c-116.807,0-211.5-94.687-211.5-211.5
	C38.5,133.193,133.193,38.5,250,38.5z"/>
</g></g><g transform="translate(70,350) scale(0.07,0.07)"><g transform="" style="fill: rgb(0, 0, 0);">
<path d="M250,38.5c116.813,0,211.5,94.693,211.5,211.5c0,116.813-94.687,211.5-211.5,211.5c-116.807,0-211.5-94.687-211.5-211.5
	C38.5,133.193,133.193,38.5,250,38.5z"/>
</g></g><g transform="translate(140,350) scale(0.07,0.07)"><g transform="" style="fill: rgb(0, 0, 0);">
<path  d="M470,38.5h-47c0,0-29.157,0-66.5,0c-5.711,0-11.611,0-17.63,0c-47.461,0-102.168,0-127.37,0
	C94.65,38.5,0,133.222,0,250c0,116.765,94.65,211.5,211.5,211.5c31.48,0,83.041,0,127.37,0c6.035,0,11.932,0,17.63,0
	c37.686,0,66.5,0,66.5,0h47h30v-423H470z"/>
</g></g><g transform="translate(175,350) scale(0.07,0.07)"><g transform="" style="fill: rgb(0, 0, 0);">
<polygon points="250,38.5 0,38.5 0,461.5 250,461.5 500,461.5 500,38.5 "/>
</g></g><g transform="translate(210,350) scale(0.07,0.07)"><g transform="" style="fill: rgb(0, 0, 0);">
<polygon points="250,38.5 0,38.5 0,461.5 250,461.5 500,461.5 500,38.5 "/>
</g></g><g transform="translate(245,350) scale(0.07,0.07)"><g transform="" style="fill: rgb(0, 0, 0);">
<polygon points="250,38.5 0,38.5 0,461.5 250,461.5 500,461.5 500,38.5 "/>
</g></g><g transform="translate(280,350) scale(0.07,0.07)"><g transform="" style="fill: rgb(0, 0, 0);">
<path d="M288.5,38.5c-42.907,0-123.188,0-171.55,0c-23.857,0-39.95,0-39.95,0H59.5H30H0v423h30h29.5H77c0,0,16.216,0,39.95,0
	c51.332,0,137.84,0,171.55,0C405.301,461.5,500,366.8,500,250C500,133.191,405.301,38.5,288.5,38.5z"/>
</g></g><g transform="translate(420,350) scale(0.07,0.07)"><g transform="" style="fill: rgb(0, 0, 0);">
<path  d="M470,38.5h-47c0,0-29.157,0-66.5,0c-5.711,0-11.611,0-17.63,0c-47.461,0-102.168,0-127.37,0
	C94.65,38.5,0,133.222,0,250c0,116.765,94.65,211.5,211.5,211.5c31.48,0,83.041,0,127.37,0c6.035,0,11.932,0,17.63,0
	c37.686,0,66.5,0,66.5,0h47h30v-423H470z"/>
</g></g><g transform="translate(455,350) scale(0.07,0.07)"><g transform="" style="fill: rgb(0, 0, 0);">
<path d="M288.5,38.5c-42.907,0-123.188,0-171.55,0c-23.857,0-39.95,0-39.95,0H59.5H30H0v423h30h29.5H77c0,0,16.216,0,39.95,0
	c51.332,0,137.84,0,171.55,0C405.301,461.5,500,366.8,500,250C500,133.191,405.301,38.5,288.5,38.5z"/>
</g></g><g transform="translate(595,350) scale(0.07,0.07)"><g transform="" style="fill: rgb(0, 0, 0);">
<path  d="M470,38.5h-47c0,0-29.157,0-66.5,0c-5.711,0-11.611,0-17.63,0c-47.461,0-102.168,0-127.37,0
	C94.65,38.5,0,133.222,0,250c0,116.765,94.65,211.5,211.5,211.5c31.48,0,83.041,0,127.37,0c6.035,0,11.932,0,17.63,0
	c37.686,0,66.5,0,66.5,0h47h30v-423H470z"/>
</g></g><g transform="translate(630,350) scale(0.07,0.07)"><g transform="" style="fill: rgb(0, 0, 0);">
<path d="M288.5,38.5c-42.907,0-123.188,0-171.55,0c-23.857,0-39.95,0-39.95,0H59.5H30H0v423h30h29.5H77c0,0,16.216,0,39.95,0
	c51.332,0,137.84,0,171.55,0C405.301,461.5,500,366.8,500,250C500,133.191,405.301,38.5,288.5,38.5z"/>
</g></g><g transform="translate(735,350) scale(0.07,0.07)"><g transform="" style="fill: rgb(0, 0, 0);">
<path  d="M470,38.5h-47c0,0-29.157,0-66.5,0c-5.711,0-11.611,0-17.63,0c-47.461,0-102.168,0-127.37,0
	C94.65,38.5,0,133.222,0,250c0,116.765,94.65,211.5,211.5,211.5c31.48,0,83.041,0,127.37,0c6.035,0,11.932,0,17.63,0
	c37.686,0,66.5,0,66.5,0h47h30v-423H470z"/>
</g></g><g transform="translate(770,350) scale(0.07,0.07)"><g transform="" style="fill: rgb(0, 0, 0);">
<path d="M288.5,38.5c-42.907,0-123.188,0-171.55,0c-23.857,0-39.95,0-39.95,0H59.5H30H0v423h30h29.5H77c0,0,16.216,0,39.95,0
	c51.332,0,137.84,0,171.55,0C405.301,461.5,500,366.8,500,250C500,133.191,405.301,38.5,288.5,38.5z"/>
</g></g><g transform="translate(840,350) scale(0.07,0.07)"><g transform="" style="fill: rgb(0, 0, 0);">
<path d="M250,38.5c116.813,0,211.5,94.693,211.5,211.5c0,116.813-94.687,211.5-211.5,211.5c-116.807,0-211.5-94.687-211.5-211.5
	C38.5,133.193,133.193,38.5,250,38.5z"/>
</g></g><g transform="translate(910,350) scale(0.07,0.07)"><g transform="" style="fill: rgb(0, 0, 0);">
<path  d="M470,38.5h-47c0,0-29.157,0-66.5,0c-5.711,0-11.611,0-17.63,0c-47.461,0-102.168,0-127.37,0
	C94.65,38.5,0,133.222,0,250c0,116.765,94.65,211.5,211.5,211.5c31.48,0,83.041,0,127.37,0c6.035,0,11.932,0,17.63,0
	c37.686,0,66.5,0,66.5,0h47h30v-423H470z"/>
</g></g><g transform="translate(945,350) scale(0.07,0.07)"><g transform="" style="fill: rgb(0, 0, 0);">
<path d="M288.5,38.5c-42.907,0-123.188,0-171.55,0c-23.857,0-39.95,0-39.95,0H59.5H30H0v423h30h29.5H77c0,0,16.216,0,39.95,0
	c51.332,0,137.84,0,171.55,0C405.301,461.5,500,366.8,500,250C500,133.191,405.301,38.5,288.5,38.5z"/>
</g></g><g transform="translate(0,385) scale(0.07,0.07)"><g transform="" style="fill: rgb(0, 0, 0);">
<path  d="M470,38.5h-47c0,0-29.157,0-66.5,0c-5.711,0-11.611,0-17.63,0c-47.461,0-102.168,0-127.37,0
	C94.65,38.5,0,133.222,0,250c0,116.765,94.65,211.5,211.5,211.5c31.48,0,83.041,0,127.37,0c6.035,0,11.932,0,17.63,0
	c37.686,0,66.5,0,66.5,0h47h30v-423H470z"/>
</g></g><g transform="translate(35,385) scale(0.07,0.07)"><g transform="" style="fill: rgb(0, 0, 0);">
<path d="M288.5,38.5c-42.907,0-123.188,0-171.55,0c-23.857,0-39.95,0-39.95,0H59.5H30H0v423h30h29.5H77c0,0,16.216,0,39.95,0
	c51.332,0,137.84,0,171.55,0C405.301,461.5,500,366.8,500,250C500,133.191,405.301,38.5,288.5,38.5z"/>
</g></g><g transform="translate(175,385) scale(0.07,0.07)"><g transform="" style="fill: rgb(0, 0, 0);">
<path d="M250,38.5c116.813,0,211.5,94.693,211.5,211.5c0,116.813-94.687,211.5-211.5,211.5c-116.807,0-211.5-94.687-211.5-211.5
	C38.5,133.193,133.193,38.5,250,38.5z"/>
</g></g><g transform="translate(315,385) scale(0.07,0.07)"><g transform="" style="fill: rgb(0, 0, 0);">
<path d="M250,38.5c116.813,0,211.5,94.693,211.5,211.5c0,116.813-94.687,211.5-211.5,211.5c-116.807,0-211.5-94.687-211.5-211.5
	C38.5,133.193,133.193,38.5,250,38.5z"/>
</g></g><g transform="translate(700,385) scale(0.07,0.07)"><g transform="" style="fill: rgb(0, 0, 0);">
<path  d="M470,38.5h-47c0,0-29.157,0-66.5,0c-5.711,0-11.611,0-17.63,0c-47.461,0-102.168,0-127.37,0
	C94.65,38.5,0,133.222,0,250c0,116.765,94.65,211.5,211.5,211.5c31.48,0,83.041,0,127.37,0c6.035,0,11.932,0,17.63,0
	c37.686,0,66.5,0,66.5,0h47h30v-423H470z"/>
</g></g><g transform="translate(735,385) scale(0.07,0.07)"><g transform="" style="fill: rgb(0, 0, 0);">
<path d="M288.5,38.5c-42.907,0-123.188,0-171.55,0c-23.857,0-39.95,0-39.95,0H59.5H30H0v423h30h29.5H77c0,0,16.216,0,39.95,0
	c51.332,0,137.84,0,171.55,0C405.301,461.5,500,366.8,500,250C500,133.191,405.301,38.5,288.5,38.5z"/>
</g></g><g transform="translate(980,385) scale(0.07,0.07)"><g transform="" style="fill: rgb(0, 0, 0);">
<path d="M250,38.5c116.813,0,211.5,94.693,211.5,211.5c0,116.813-94.687,211.5-211.5,211.5c-116.807,0-211.5-94.687-211.5-211.5
	C38.5,133.193,133.193,38.5,250,38.5z"/>
</g></g><g transform="translate(0,420) scale(0.07,0.07)"><g transform="" style="fill: rgb(0, 0, 0);">
<path d="M250,38.5c116.813,0,211.5,94.693,211.5,211.5c0,116.813-94.687,211.5-211.5,211.5c-116.807,0-211.5-94.687-211.5-211.5
	C38.5,133.193,133.193,38.5,250,38.5z"/>
</g></g><g transform="translate(105,420) scale(0.07,0.07)"><g transform="" style="fill: rgb(0, 0, 0);">
<path  d="M470,38.5h-47c0,0-29.157,0-66.5,0c-5.711,0-11.611,0-17.63,0c-47.461,0-102.168,0-127.37,0
	C94.65,38.5,0,133.222,0,250c0,116.765,94.65,211.5,211.5,211.5c31.48,0,83.041,0,127.37,0c6.035,0,11.932,0,17.63,0
	c37.686,0,66.5,0,66.5,0h47h30v-423H470z"/>
</g></g><g transform="translate(140,420) scale(0.07,0.07)"><g transform="" style="fill: rgb(0, 0, 0);">
<path d="M288.5,38.5c-42.907,0-123.188,0-171.55,0c-23.857,0-39.95,0-39.95,0H59.5H30H0v423h30h29.5H77c0,0,16.216,0,39.95,0
	c51.332,0,137.84,0,171.55,0C405.301,461.5,500,366.8,500,250C500,133.191,405.301,38.5,288.5,38.5z"/>
</g></g><g transform="translate(210,420) scale(0.07,0.07)"><g transform="" style="fill: rgb(0, 0, 0);">
<path d="M250,38.5c116.813,0,211.5,94.693,211.5,211.5c0,116.813-94.687,211.5-211.5,211.5c-116.807,0-211.5-94.687-211.5-211.5
	C38.5,133.193,133.193,38.5,250,38.5z"/>
</g></g><g transform="translate(280,420) scale(0.07,0.07)"><g transform="" style="fill: rgb(0, 0, 0);">
<path  d="M470,38.5h-47c0,0-29.157,0-66.5,0c-5.711,0-11.611,0-17.63,0c-47.461,0-102.168,0-127.37,0
	C94.65,38.5,0,133.222,0,250c0,116.765,94.65,211.5,211.5,211.5c31.48,0,83.041,0,127.37,0c6.035,0,11.932,0,17.63,0
	c37.686,0,66.5,0,66.5,0h47h30v-423H470z"/>
</g></g><g transform="translate(315,420) scale(0.07,0.07)"><g transform="" style="fill: rgb(0, 0, 0);">
<path d="M288.5,38.5c-42.907,0-123.188,0-171.55,0c-23.857,0-39.95,0-39.95,0H59.5H30H0v423h30h29.5H77c0,0,16.216,0,39.95,0
	c51.332,0,137.84,0,171.55,0C405.301,461.5,500,366.8,500,250C500,133.191,405.301,38.5,288.5,38.5z"/>
</g></g><g transform="translate(490,420) scale(0.07,0.07)"><g transform="" style="fill: rgb(0, 0, 0);">
<path d="M250,38.5c116.813,0,211.5,94.693,211.5,211.5c0,116.813-94.687,211.5-211.5,211.5c-116.807,0-211.5-94.687-211.5-211.5
	C38.5,133.193,133.193,38.5,250,38.5z"/>
</g></g><g transform="translate(595,420) scale(0.07,0.07)"><g transform="" style="fill: rgb(0, 0, 0);">
<path d="M250,38.5c116.813,0,211.5,94.693,211.5,211.5c0,116.813-94.687,211.5-211.5,211.5c-116.807,0-211.5-94.687-211.5-211.5
	C38.5,133.193,133.193,38.5,250,38.5z"/>
</g></g><g transform="translate(665,420) scale(0.07,0.07)"><g transform="" style="fill: rgb(0, 0, 0);">
<path d="M250,38.5c116.813,0,211.5,94.693,211.5,211.5c0,116.813-94.687,211.5-211.5,211.5c-116.807,0-211.5-94.687-211.5-211.5
	C38.5,133.193,133.193,38.5,250,38.5z"/>
</g></g><g transform="translate(875,420) scale(0.07,0.07)"><g transform="" style="fill: rgb(0, 0, 0);">
<path  d="M470,38.5h-47c0,0-29.157,0-66.5,0c-5.711,0-11.611,0-17.63,0c-47.461,0-102.168,0-127.37,0
	C94.65,38.5,0,133.222,0,250c0,116.765,94.65,211.5,211.5,211.5c31.48,0,83.041,0,127.37,0c6.035,0,11.932,0,17.63,0
	c37.686,0,66.5,0,66.5,0h47h30v-423H470z"/>
</g></g><g transform="translate(910,420) scale(0.07,0.07)"><g transform="" style="fill: rgb(0, 0, 0);">
<path d="M288.5,38.5c-42.907,0-123.188,0-171.55,0c-23.857,0-39.95,0-39.95,0H59.5H30H0v423h30h29.5H77c0,0,16.216,0,39.95,0
	c51.332,0,137.84,0,171.55,0C405.301,461.5,500,366.8,500,250C500,133.191,405.301,38.5,288.5,38.5z"/>
</g></g><g transform="translate(0,455) scale(0.07,0.07)"><g transform="" style="fill: rgb(0, 0, 0);">
<path d="M250,38.5c116.813,0,211.5,94.693,211.5,211.5c0,116.813-94.687,211.5-211.5,211.5c-116.807,0-211.5-94.687-211.5-211.5
	C38.5,133.193,133.193,38.5,250,38.5z"/>
</g></g><g transform="translate(70,455) scale(0.07,0.07)"><g transform="" style="fill: rgb(0, 0, 0);">
<path  d="M470,38.5h-47c0,0-29.157,0-66.5,0c-5.711,0-11.611,0-17.63,0c-47.461,0-102.168,0-127.37,0
	C94.65,38.5,0,133.222,0,250c0,116.765,94.65,211.5,211.5,211.5c31.48,0,83.041,0,127.37,0c6.035,0,11.932,0,17.63,0
	c37.686,0,66.5,0,66.5,0h47h30v-423H470z"/>
</g></g><g transform="translate(105,455) scale(0.07,0.07)"><g transform="" style="fill: rgb(0, 0, 0);">
<polygon points="250,38.5 0,38.5 0,461.5 250,461.5 500,461.5 500,38.5 "/>
</g></g><g transform="translate(140,455) scale(0.07,0.07)"><g transform="" style="fill: rgb(0, 0, 0);">
<polygon points="250,38.5 0,38.5 0,461.5 250,461.5 500,461.5 500,38.5 "/>
</g></g><g transform="translate(175,455) scale(0.07,0.07)"><g transform="" style="fill: rgb(0, 0, 0);">
<path d="M288.5,38.5c-42.907,0-123.188,0-171.55,0c-23.857,0-39.95,0-39.95,0H59.5H30H0v423h30h29.5H77c0,0,16.216,0,39.95,0
	c51.332,0,137.84,0,171.55,0C405.301,461.5,500,366.8,500,250C500,133.191,405.301,38.5,288.5,38.5z"/>
</g></g><g transform="translate(245,455) scale(0.07,0.07)"><g transform="" style="fill: rgb(0, 0, 0);">
<path d="M250,38.5c116.813,0,211.5,94.693,211.5,211.5c0,116.813-94.687,211.5-211.5,211.5c-116.807,0-211.5-94.687-211.5-211.5
	C38.5,133.193,133.193,38.5,250,38.5z"/>
</g></g><g transform="translate(350,455) scale(0.07,0.07)"><g transform="" style="fill: rgb(0, 0, 0);">
<path d="M250,38.5c116.813,0,211.5,94.693,211.5,211.5c0,116.813-94.687,211.5-211.5,211.5c-116.807,0-211.5-94.687-211.5-211.5
	C38.5,133.193,133.193,38.5,250,38.5z"/>
</g></g><g transform="translate(420,455) scale(0.07,0.07)"><g transform="" style="fill: rgb(0, 0, 0);">
<path d="M250,38.5c116.813,0,211.5,94.693,211.5,211.5c0,116.813-94.687,211.5-211.5,211.5c-116.807,0-211.5-94.687-211.5-211.5
	C38.5,133.193,133.193,38.5,250,38.5z"/>
</g></g><g transform="translate(490,455) scale(0.07,0.07)"><g transform="" style="fill: rgb(0, 0, 0);">
<path  d="M470,38.5h-47c0,0-29.157,0-66.5,0c-5.711,0-11.611,0-17.63,0c-47.461,0-102.168,0-127.37,0
	C94.65,38.5,0,133.222,0,250c0,116.765,94.65,211.5,211.5,211.5c31.48,0,83.041,0,127.37,0c6.035,0,11.932,0,17.63,0
	c37.686,0,66.5,0,66.5,0h47h30v-423H470z"/>
</g></g><g transform="translate(525,455) scale(0.07,0.07)"><g transform="" style="fill: rgb(0, 0, 0);">
<polygon points="250,38.5 0,38.5 0,461.5 250,461.5 500,461.5 500,38.5 "/>
</g></g><g transform="translate(560,455) scale(0.07,0.07)"><g transform="" style="fill: rgb(0, 0, 0);">
<polygon points="250,38.5 0,38.5 0,461.5 250,461.5 500,461.5 500,38.5 "/>
</g></g><g transform="translate(595,455) scale(0.07,0.07)"><g transform="" style="fill: rgb(0, 0, 0);">
<path d="M288.5,38.5c-42.907,0-123.188,0-171.55,0c-23.857,0-39.95,0-39.95,0H59.5H30H0v423h30h29.5H77c0,0,16.216,0,39.95,0
	c51.332,0,137.84,0,171.55,0C405.301,461.5,500,366.8,500,250C500,133.191,405.301,38.5,288.5,38.5z"/>
</g></g><g transform="translate(665,455) scale(0.07,0.07)"><g transform="" style="fill: rgb(0, 0, 0);">
<path  d="M470,38.5h-47c0,0-29.157,0-66.5,0c-5.711,0-11.611,0-17.63,0c-47.461,0-102.168,0-127.37,0
	C94.65,38.5,0,133.222,0,250c0,116.765,94.65,211.5,211.5,211.5c31.48,0,83.041,0,127.37,0c6.035,0,11.932,0,17.63,0
	c37.686,0,66.5,0,66.5,0h47h30v-423H470z"/>
</g></g><g transform="translate(700,455) scale(0.07,0.07)"><g transform="" style="fill: rgb(0, 0, 0);">
<polygon points="250,38.5 0,38.5 0,461.5 250,461.5 500,461.5 500,38.5 "/>
</g></g><g transform="translate(735,455) scale(0.07,0.07)"><g transform="" style="fill: rgb(0, 0, 0);">
<polygon points="250,38.5 0,38.5 0,461.5 250,461.5 500,461.5 500,38.5 "/>
</g></g><g transform="translate(770,455) scale(0.07,0.07)"><g transform="" style="fill: rgb(0, 0, 0);">
<path d="M288.5,38.5c-42.907,0-123.188,0-171.55,0c-23.857,0-39.95,0-39.95,0H59.5H30H0v423h30h29.5H77c0,0,16.216,0,39.95,0
	c51.332,0,137.84,0,171.55,0C405.301,461.5,500,366.8,500,250C500,133.191,405.301,38.5,288.5,38.5z"/>
</g></g><g transform="translate(910,455) scale(0.07,0.07)"><g transform="" style="fill: rgb(0, 0, 0);">
<path  d="M470,38.5h-47c0,0-29.157,0-66.5,0c-5.711,0-11.611,0-17.63,0c-47.461,0-102.168,0-127.37,0
	C94.65,38.5,0,133.222,0,250c0,116.765,94.65,211.5,211.5,211.5c31.48,0,83.041,0,127.37,0c6.035,0,11.932,0,17.63,0
	c37.686,0,66.5,0,66.5,0h47h30v-423H470z"/>
</g></g><g transform="translate(945,455) scale(0.07,0.07)"><g transform="" style="fill: rgb(0, 0, 0);">
<polygon points="250,38.5 0,38.5 0,461.5 250,461.5 500,461.5 500,38.5 "/>
</g></g><g transform="translate(980,455) scale(0.07,0.07)"><g transform="" style="fill: rgb(0, 0, 0);">
<path d="M288.5,38.5c-42.907,0-123.188,0-171.55,0c-23.857,0-39.95,0-39.95,0H59.5H30H0v423h30h29.5H77c0,0,16.216,0,39.95,0
	c51.332,0,137.84,0,171.55,0C405.301,461.5,500,366.8,500,250C500,133.191,405.301,38.5,288.5,38.5z"/>
</g></g><g transform="translate(35,490) scale(0.07,0.07)"><g transform="" style="fill: rgb(0, 0, 0);">
<path d="M250,38.5c116.813,0,211.5,94.693,211.5,211.5c0,116.813-94.687,211.5-211.5,211.5c-116.807,0-211.5-94.687-211.5-211.5
	C38.5,133.193,133.193,38.5,250,38.5z"/>
</g></g><g transform="translate(175,490) scale(0.07,0.07)"><g transform="" style="fill: rgb(0, 0, 0);">
<path  d="M470,38.5h-47c0,0-29.157,0-66.5,0c-5.711,0-11.611,0-17.63,0c-47.461,0-102.168,0-127.37,0
	C94.65,38.5,0,133.222,0,250c0,116.765,94.65,211.5,211.5,211.5c31.48,0,83.041,0,127.37,0c6.035,0,11.932,0,17.63,0
	c37.686,0,66.5,0,66.5,0h47h30v-423H470z"/>
</g></g><g transform="translate(210,490) scale(0.07,0.07)"><g transform="" style="fill: rgb(0, 0, 0);">
<polygon points="250,38.5 0,38.5 0,461.5 250,461.5 500,461.5 500,38.5 "/>
</g></g><g transform="translate(245,490) scale(0.07,0.07)"><g transform="" style="fill: rgb(0, 0, 0);">
<path d="M288.5,38.5c-42.907,0-123.188,0-171.55,0c-23.857,0-39.95,0-39.95,0H59.5H30H0v423h30h29.5H77c0,0,16.216,0,39.95,0
	c51.332,0,137.84,0,171.55,0C405.301,461.5,500,366.8,500,250C500,133.191,405.301,38.5,288.5,38.5z"/>
</g></g><g transform="translate(455,490) scale(0.07,0.07)"><g transform="" style="fill: rgb(0, 0, 0);">
<path d="M250,38.5c116.813,0,211.5,94.693,211.5,211.5c0,116.813-94.687,211.5-211.5,211.5c-116.807,0-211.5-94.687-211.5-211.5
	C38.5,133.193,133.193,38.5,250,38.5z"/>
</g></g><g transform="translate(630,490) scale(0.07,0.07)"><g transform="" style="fill: rgb(0, 0, 0);">
<path  d="M470,38.5h-47c0,0-29.157,0-66.5,0c-5.711,0-11.611,0-17.63,0c-47.461,0-102.168,0-127.37,0
	C94.65,38.5,0,133.222,0,250c0,116.765,94.65,211.5,211.5,211.5c31.48,0,83.041,0,127.37,0c6.035,0,11.932,0,17.63,0
	c37.686,0,66.5,0,66.5,0h47h30v-423H470z"/>
</g></g><g transform="translate(665,490) scale(0.07,0.07)"><g transform="" style="fill: rgb(0, 0, 0);">
<polygon points="250,38.5 0,38.5 0,461.5 250,461.5 500,461.5 500,38.5 "/>
</g></g><g transform="translate(700,490) scale(0.07,0.07)"><g transform="" style="fill: rgb(0, 0, 0);">
<path d="M288.5,38.5c-42.907,0-123.188,0-171.55,0c-23.857,0-39.95,0-39.95,0H59.5H30H0v423h30h29.5H77c0,0,16.216,0,39.95,0
	c51.332,0,137.84,0,171.55,0C405.301,461.5,500,366.8,500,250C500,133.191,405.301,38.5,288.5,38.5z"/>
</g></g><g transform="translate(770,490) scale(0.07,0.07)"><g transform="" style="fill: rgb(0, 0, 0);">
<path  d="M470,38.5h-47c0,0-29.157,0-66.5,0c-5.711,0-11.611,0-17.63,0c-47.461,0-102.168,0-127.37,0
	C94.65,38.5,0,133.222,0,250c0,116.765,94.65,211.5,211.5,211.5c31.48,0,83.041,0,127.37,0c6.035,0,11.932,0,17.63,0
	c37.686,0,66.5,0,66.5,0h47h30v-423H470z"/>
</g></g><g transform="translate(805,490) scale(0.07,0.07)"><g transform="" style="fill: rgb(0, 0, 0);">
<polygon points="250,38.5 0,38.5 0,461.5 250,461.5 500,461.5 500,38.5 "/>
</g></g><g transform="translate(840,490) scale(0.07,0.07)"><g transform="" style="fill: rgb(0, 0, 0);">
<path d="M288.5,38.5c-42.907,0-123.188,0-171.55,0c-23.857,0-39.95,0-39.95,0H59.5H30H0v423h30h29.5H77c0,0,16.216,0,39.95,0
	c51.332,0,137.84,0,171.55,0C405.301,461.5,500,366.8,500,250C500,133.191,405.301,38.5,288.5,38.5z"/>
</g></g><g transform="translate(910,490) scale(0.07,0.07)"><g transform="" style="fill: rgb(0, 0, 0);">
<path  d="M470,38.5h-47c0,0-29.157,0-66.5,0c-5.711,0-11.611,0-17.63,0c-47.461,0-102.168,0-127.37,0
	C94.65,38.5,0,133.222,0,250c0,116.765,94.65,211.5,211.5,211.5c31.48,0,83.041,0,127.37,0c6.035,0,11.932,0,17.63,0
	c37.686,0,66.5,0,66.5,0h47h30v-423H470z"/>
</g></g><g transform="translate(945,490) scale(0.07,0.07)"><g transform="" style="fill: rgb(0, 0, 0);">
<polygon points="250,38.5 0,38.5 0,461.5 250,461.5 500,461.5 500,38.5 "/>
</g></g><g transform="translate(980,490) scale(0.07,0.07)"><g transform="" style="fill: rgb(0, 0, 0);">
<path d="M288.5,38.5c-42.907,0-123.188,0-171.55,0c-23.857,0-39.95,0-39.95,0H59.5H30H0v423h30h29.5H77c0,0,16.216,0,39.95,0
	c51.332,0,137.84,0,171.55,0C405.301,461.5,500,366.8,500,250C500,133.191,405.301,38.5,288.5,38.5z"/>
</g></g><g transform="translate(0,525) scale(0.07,0.07)"><g transform="" style="fill: rgb(0, 0, 0);">
<path d="M250,38.5c116.813,0,211.5,94.693,211.5,211.5c0,116.813-94.687,211.5-211.5,211.5c-116.807,0-211.5-94.687-211.5-211.5
	C38.5,133.193,133.193,38.5,250,38.5z"/>
</g></g><g transform="translate(140,525) scale(0.07,0.07)"><g transform="" style="fill: rgb(0, 0, 0);">
<path d="M250,38.5c116.813,0,211.5,94.693,211.5,211.5c0,116.813-94.687,211.5-211.5,211.5c-116.807,0-211.5-94.687-211.5-211.5
	C38.5,133.193,133.193,38.5,250,38.5z"/>
</g></g><g transform="translate(245,525) scale(0.07,0.07)"><g transform="" style="fill: rgb(0, 0, 0);">
<path  d="M470,38.5h-47c0,0-29.157,0-66.5,0c-5.711,0-11.611,0-17.63,0c-47.461,0-102.168,0-127.37,0
	C94.65,38.5,0,133.222,0,250c0,116.765,94.65,211.5,211.5,211.5c31.48,0,83.041,0,127.37,0c6.035,0,11.932,0,17.63,0
	c37.686,0,66.5,0,66.5,0h47h30v-423H470z"/>
</g></g><g transform="translate(280,525) scale(0.07,0.07)"><g transform="" style="fill: rgb(0, 0, 0);">
<path d="M288.5,38.5c-42.907,0-123.188,0-171.55,0c-23.857,0-39.95,0-39.95,0H59.5H30H0v423h30h29.5H77c0,0,16.216,0,39.95,0
	c51.332,0,137.84,0,171.55,0C405.301,461.5,500,366.8,500,250C500,133.191,405.301,38.5,288.5,38.5z"/>
</g></g><g transform="translate(490,525) scale(0.07,0.07)"><g transform="" style="fill: rgb(0, 0, 0);">
<path d="M250,38.5c116.813,0,211.5,94.693,211.5,211.5c0,116.813-94.687,211.5-211.5,211.5c-116.807,0-211.5-94.687-211.5-211.5
	C38.5,133.193,133.193,38.5,250,38.5z"/>
</g></g><g transform="translate(700,525) scale(0.07,0.07)"><g transform="" style="fill: rgb(0, 0, 0);">
<path  d="M470,38.5h-47c0,0-29.157,0-66.5,0c-5.711,0-11.611,0-17.63,0c-47.461,0-102.168,0-127.37,0
	C94.65,38.5,0,133.222,0,250c0,116.765,94.65,211.5,211.5,211.5c31.48,0,83.041,0,127.37,0c6.035,0,11.932,0,17.63,0
	c37.686,0,66.5,0,66.5,0h47h30v-423H470z"/>
</g></g><g transform="translate(735,525) scale(0.07,0.07)"><g transform="" style="fill: rgb(0, 0, 0);">
<polygon points="250,38.5 0,38.5 0,461.5 250,461.5 500,461.5 500,38.5 "/>
</g></g><g transform="translate(770,525) scale(0.07,0.07)"><g transform="" style="fill: rgb(0, 0, 0);">
<path d="M288.5,38.5c-42.907,0-123.188,0-171.55,0c-23.857,0-39.95,0-39.95,0H59.5H30H0v423h30h29.5H77c0,0,16.216,0,39.95,0
	c51.332,0,137.84,0,171.55,0C405.301,461.5,500,366.8,500,250C500,133.191,405.301,38.5,288.5,38.5z"/>
</g></g><g transform="translate(840,525) scale(0.07,0.07)"><g transform="" style="fill: rgb(0, 0, 0);">
<path d="M250,38.5c116.813,0,211.5,94.693,211.5,211.5c0,116.813-94.687,211.5-211.5,211.5c-116.807,0-211.5-94.687-211.5-211.5
	C38.5,133.193,133.193,38.5,250,38.5z"/>
</g></g><g transform="translate(945,525) scale(0.07,0.07)"><g transform="" style="fill: rgb(0, 0, 0);">
<path d="M250,38.5c116.813,0,211.5,94.693,211.5,211.5c0,116.813-94.687,211.5-211.5,211.5c-116.807,0-211.5-94.687-211.5-211.5
	C38.5,133.193,133.193,38.5,250,38.5z"/>
</g></g><g transform="translate(140,560) scale(0.07,0.07)"><g transform="" style="fill: rgb(0, 0, 0);">
<path d="M250,38.5c116.813,0,211.5,94.693,211.5,211.5c0,116.813-94.687,211.5-211.5,211.5c-116.807,0-211.5-94.687-211.5-211.5
	C38.5,133.193,133.193,38.5,250,38.5z"/>
</g></g><g transform="translate(210,560) scale(0.07,0.07)"><g transform="" style="fill: rgb(0, 0, 0);">
<path d="M250,38.5c116.813,0,211.5,94.693,211.5,211.5c0,116.813-94.687,211.5-211.5,211.5c-116.807,0-211.5-94.687-211.5-211.5
	C38.5,133.193,133.193,38.5,250,38.5z"/>
</g></g><g transform="translate(280,560) scale(0.07,0.07)"><g transform="" style="fill: rgb(0, 0, 0);">
<path  d="M470,38.5h-47c0,0-29.157,0-66.5,0c-5.711,0-11.611,0-17.63,0c-47.461,0-102.168,0-127.37,0
	C94.65,38.5,0,133.222,0,250c0,116.765,94.65,211.5,211.5,211.5c31.48,0,83.041,0,127.37,0c6.035,0,11.932,0,17.63,0
	c37.686,0,66.5,0,66.5,0h47h30v-423H470z"/>
</g></g><g transform="translate(315,560) scale(0.07,0.07)"><g transform="" style="fill: rgb(0, 0, 0);">
<path d="M288.5,38.5c-42.907,0-123.188,0-171.55,0c-23.857,0-39.95,0-39.95,0H59.5H30H0v423h30h29.5H77c0,0,16.216,0,39.95,0
	c51.332,0,137.84,0,171.55,0C405.301,461.5,500,366.8,500,250C500,133.191,405.301,38.5,288.5,38.5z"/>
</g></g><g transform="translate(420,560) scale(0.07,0.07)"><g transform="" style="fill: rgb(0, 0, 0);">
<path d="M250,38.5c116.813,0,211.5,94.693,211.5,211.5c0,116.813-94.687,211.5-211.5,211.5c-116.807,0-211.5-94.687-211.5-211.5
	C38.5,133.193,133.193,38.5,250,38.5z"/>
</g></g><g transform="translate(490,560) scale(0.07,0.07)"><g transform="" style="fill: rgb(0, 0, 0);">
<path d="M250,38.5c116.813,0,211.5,94.693,211.5,211.5c0,116.813-94.687,211.5-211.5,211.5c-116.807,0-211.5-94.687-211.5-211.5
	C38.5,133.193,133.193,38.5,250,38.5z"/>
</g></g><g transform="translate(560,560) scale(0.07,0.07)"><g transform="" style="fill: rgb(0, 0, 0);">
<path d="M250,38.5c116.813,0,211.5,94.693,211.5,211.5c0,116.813-94.687,211.5-211.5,211.5c-116.807,0-211.5-94.687-211.5-211.5
	C38.5,133.193,133.193,38.5,250,38.5z"/>
</g></g><g transform="translate(665,560) scale(0.07,0.07)"><g transform="" style="fill: rgb(0, 0, 0);">
<path  d="M470,38.5h-47c0,0-29.157,0-66.5,0c-5.711,0-11.611,0-17.63,0c-47.461,0-102.168,0-127.37,0
	C94.65,38.5,0,133.222,0,250c0,116.765,94.65,211.5,211.5,211.5c31.48,0,83.041,0,127.37,0c6.035,0,11.932,0,17.63,0
	c37.686,0,66.5,0,66.5,0h47h30v-423H470z"/>
</g></g><g transform="translate(700,560) scale(0.07,0.07)"><g transform="" style="fill: rgb(0, 0, 0);">
<polygon points="250,38.5 0,38.5 0,461.5 250,461.5 500,461.5 500,38.5 "/>
</g></g><g transform="translate(735,560) scale(0.07,0.07)"><g transform="" style="fill: rgb(0, 0, 0);">
<path d="M288.5,38.5c-42.907,0-123.188,0-171.55,0c-23.857,0-39.95,0-39.95,0H59.5H30H0v423h30h29.5H77c0,0,16.216,0,39.95,0
	c51.332,0,137.84,0,171.55,0C405.301,461.5,500,366.8,500,250C500,133.191,405.301,38.5,288.5,38.5z"/>
</g></g><g transform="translate(840,560) scale(0.07,0.07)"><g transform="" style="fill: rgb(0, 0, 0);">
<path  d="M470,38.5h-47c0,0-29.157,0-66.5,0c-5.711,0-11.611,0-17.63,0c-47.461,0-102.168,0-127.37,0
	C94.65,38.5,0,133.222,0,250c0,116.765,94.65,211.5,211.5,211.5c31.48,0,83.041,0,127.37,0c6.035,0,11.932,0,17.63,0
	c37.686,0,66.5,0,66.5,0h47h30v-423H470z"/>
</g></g><g transform="translate(875,560) scale(0.07,0.07)"><g transform="" style="fill: rgb(0, 0, 0);">
<path d="M288.5,38.5c-42.907,0-123.188,0-171.55,0c-23.857,0-39.95,0-39.95,0H59.5H30H0v423h30h29.5H77c0,0,16.216,0,39.95,0
	c51.332,0,137.84,0,171.55,0C405.301,461.5,500,366.8,500,250C500,133.191,405.301,38.5,288.5,38.5z"/>
</g></g><g transform="translate(945,560) scale(0.07,0.07)"><g transform="" style="fill: rgb(0, 0, 0);">
<path d="M250,38.5c116.813,0,211.5,94.693,211.5,211.5c0,116.813-94.687,211.5-211.5,211.5c-116.807,0-211.5-94.687-211.5-211.5
	C38.5,133.193,133.193,38.5,250,38.5z"/>
</g></g><g transform="translate(35,595) scale(0.07,0.07)"><g transform="" style="fill: rgb(0, 0, 0);">
<path d="M250,38.5c116.813,0,211.5,94.693,211.5,211.5c0,116.813-94.687,211.5-211.5,211.5c-116.807,0-211.5-94.687-211.5-211.5
	C38.5,133.193,133.193,38.5,250,38.5z"/>
</g></g><g transform="translate(175,595) scale(0.07,0.07)"><g transform="" style="fill: rgb(0, 0, 0);">
<path d="M250,38.5c116.813,0,211.5,94.693,211.5,211.5c0,116.813-94.687,211.5-211.5,211.5c-116.807,0-211.5-94.687-211.5-211.5
	C38.5,133.193,133.193,38.5,250,38.5z"/>
</g></g><g transform="translate(245,595) scale(0.07,0.07)"><g transform="" style="fill: rgb(0, 0, 0);">
<path d="M250,38.5c116.813,0,211.5,94.693,211.5,211.5c0,116.813-94.687,211.5-211.5,211.5c-116.807,0-211.5-94.687-211.5-211.5
	C38.5,133.193,133.193,38.5,250,38.5z"/>
</g></g><g transform="translate(350,595) scale(0.07,0.07)"><g transform="" style="fill: rgb(0, 0, 0);">
<path  d="M470,38.5h-47c0,0-29.157,0-66.5,0c-5.711,0-11.611,0-17.63,0c-47.461,0-102.168,0-127.37,0
	C94.65,38.5,0,133.222,0,250c0,116.765,94.65,211.5,211.5,211.5c31.48,0,83.041,0,127.37,0c6.035,0,11.932,0,17.63,0
	c37.686,0,66.5,0,66.5,0h47h30v-423H470z"/>
</g></g><g transform="translate(385,595) scale(0.07,0.07)"><g transform="" style="fill: rgb(0, 0, 0);">
<path d="M288.5,38.5c-42.907,0-123.188,0-171.55,0c-23.857,0-39.95,0-39.95,0H59.5H30H0v423h30h29.5H77c0,0,16.216,0,39.95,0
	c51.332,0,137.84,0,171.55,0C405.301,461.5,500,366.8,500,250C500,133.191,405.301,38.5,288.5,38.5z"/>
</g></g><g transform="translate(490,595) scale(0.07,0.07)"><g transform="" style="fill: rgb(0, 0, 0);">
<path  d="M470,38.5h-47c0,0-29.157,0-66.5,0c-5.711,0-11.611,0-17.63,0c-47.461,0-102.168,0-127.37,0
	C94.65,38.5,0,133.222,0,250c0,116.765,94.65,211.5,211.5,211.5c31.48,0,83.041,0,127.37,0c6.035,0,11.932,0,17.63,0
	c37.686,0,66.5,0,66.5,0h47h30v-423H470z"/>
</g></g><g transform="translate(525,595) scale(0.07,0.07)"><g transform="" style="fill: rgb(0, 0, 0);">
<path d="M288.5,38.5c-42.907,0-123.188,0-171.55,0c-23.857,0-39.95,0-39.95,0H59.5H30H0v423h30h29.5H77c0,0,16.216,0,39.95,0
	c51.332,0,137.84,0,171.55,0C405.301,461.5,500,366.8,500,250C500,133.191,405.301,38.5,288.5,38.5z"/>
</g></g><g transform="translate(595,595) scale(0.07,0.07)"><g transform="" style="fill: rgb(0, 0, 0);">
<path d="M250,38.5c116.813,0,211.5,94.693,211.5,211.5c0,116.813-94.687,211.5-211.5,211.5c-116.807,0-211.5-94.687-211.5-211.5
	C38.5,133.193,133.193,38.5,250,38.5z"/>
</g></g><g transform="translate(700,595) scale(0.07,0.07)"><g transform="" style="fill: rgb(0, 0, 0);">
<path d="M250,38.5c116.813,0,211.5,94.693,211.5,211.5c0,116.813-94.687,211.5-211.5,211.5c-116.807,0-211.5-94.687-211.5-211.5
	C38.5,133.193,133.193,38.5,250,38.5z"/>
</g></g><g transform="translate(805,595) scale(0.07,0.07)"><g transform="" style="fill: rgb(0, 0, 0);">
<path d="M250,38.5c116.813,0,211.5,94.693,211.5,211.5c0,116.813-94.687,211.5-211.5,211.5c-116.807,0-211.5-94.687-211.5-211.5
	C38.5,133.193,133.193,38.5,250,38.5z"/>
</g></g><g transform="translate(875,595) scale(0.07,0.07)"><g transform="" style="fill: rgb(0, 0, 0);">
<path  d="M470,38.5h-47c0,0-29.157,0-66.5,0c-5.711,0-11.611,0-17.63,0c-47.461,0-102.168,0-127.37,0
	C94.65,38.5,0,133.222,0,250c0,116.765,94.65,211.5,211.5,211.5c31.48,0,83.041,0,127.37,0c6.035,0,11.932,0,17.63,0
	c37.686,0,66.5,0,66.5,0h47h30v-423H470z"/>
</g></g><g transform="translate(910,595) scale(0.07,0.07)"><g transform="" style="fill: rgb(0, 0, 0);">
<polygon points="250,38.5 0,38.5 0,461.5 250,461.5 500,461.5 500,38.5 "/>
</g></g><g transform="translate(945,595) scale(0.07,0.07)"><g transform="" style="fill: rgb(0, 0, 0);">
<path d="M288.5,38.5c-42.907,0-123.188,0-171.55,0c-23.857,0-39.95,0-39.95,0H59.5H30H0v423h30h29.5H77c0,0,16.216,0,39.95,0
	c51.332,0,137.84,0,171.55,0C405.301,461.5,500,366.8,500,250C500,133.191,405.301,38.5,288.5,38.5z"/>
</g></g><g transform="translate(0,630) scale(0.07,0.07)"><g transform="" style="fill: rgb(0, 0, 0);">
<path d="M250,38.5c116.813,0,211.5,94.693,211.5,211.5c0,116.813-94.687,211.5-211.5,211.5c-116.807,0-211.5-94.687-211.5-211.5
	C38.5,133.193,133.193,38.5,250,38.5z"/>
</g></g><g transform="translate(140,630) scale(0.07,0.07)"><g transform="" style="fill: rgb(0, 0, 0);">
<path d="M250,38.5c116.813,0,211.5,94.693,211.5,211.5c0,116.813-94.687,211.5-211.5,211.5c-116.807,0-211.5-94.687-211.5-211.5
	C38.5,133.193,133.193,38.5,250,38.5z"/>
</g></g><g transform="translate(210,630) scale(0.07,0.07)"><g transform="" style="fill: rgb(0, 0, 0);">
<path d="M250,38.5c116.813,0,211.5,94.693,211.5,211.5c0,116.813-94.687,211.5-211.5,211.5c-116.807,0-211.5-94.687-211.5-211.5
	C38.5,133.193,133.193,38.5,250,38.5z"/>
</g></g><g transform="translate(315,630) scale(0.07,0.07)"><g transform="" style="fill: rgb(0, 0, 0);">
<path  d="M470,38.5h-47c0,0-29.157,0-66.5,0c-5.711,0-11.611,0-17.63,0c-47.461,0-102.168,0-127.37,0
	C94.65,38.5,0,133.222,0,250c0,116.765,94.65,211.5,211.5,211.5c31.48,0,83.041,0,127.37,0c6.035,0,11.932,0,17.63,0
	c37.686,0,66.5,0,66.5,0h47h30v-423H470z"/>
</g></g><g transform="translate(350,630) scale(0.07,0.07)"><g transform="" style="fill: rgb(0, 0, 0);">
<path d="M288.5,38.5c-42.907,0-123.188,0-171.55,0c-23.857,0-39.95,0-39.95,0H59.5H30H0v423h30h29.5H77c0,0,16.216,0,39.95,0
	c51.332,0,137.84,0,171.55,0C405.301,461.5,500,366.8,500,250C500,133.191,405.301,38.5,288.5,38.5z"/>
</g></g><g transform="translate(455,630) scale(0.07,0.07)"><g transform="" style="fill: rgb(0, 0, 0);">
<path  d="M470,38.5h-47c0,0-29.157,0-66.5,0c-5.711,0-11.611,0-17.63,0c-47.461,0-102.168,0-127.37,0
	C94.65,38.5,0,133.222,0,250c0,116.765,94.65,211.5,211.5,211.5c31.48,0,83.041,0,127.37,0c6.035,0,11.932,0,17.63,0
	c37.686,0,66.5,0,66.5,0h47h30v-423H470z"/>
</g></g><g transform="translate(490,630) scale(0.07,0.07)"><g transform="" style="fill: rgb(0, 0, 0);">
<polygon points="250,38.5 0,38.5 0,461.5 250,461.5 500,461.5 500,38.5 "/>
</g></g><g transform="translate(525,630) scale(0.07,0.07)"><g transform="" style="fill: rgb(0, 0, 0);">
<polygon points="250,38.5 0,38.5 0,461.5 250,461.5 500,461.5 500,38.5 "/>
</g></g><g transform="translate(560,630) scale(0.07,0.07)"><g transform="" style="fill: rgb(0, 0, 0);">
<polygon points="250,38.5 0,38.5 0,461.5 250,461.5 500,461.5 500,38.5 "/>
</g></g><g transform="translate(595,630) scale(0.07,0.07)"><g transform="" style="fill: rgb(0, 0, 0);">
<path d="M288.5,38.5c-42.907,0-123.188,0-171.55,0c-23.857,0-39.95,0-39.95,0H59.5H30H0v423h30h29.5H77c0,0,16.216,0,39.95,0
	c51.332,0,137.84,0,171.55,0C405.301,461.5,500,366.8,500,250C500,133.191,405.301,38.5,288.5,38.5z"/>
</g></g><g transform="translate(700,630) scale(0.07,0.07)"><g transform="" style="fill: rgb(0, 0, 0);">
<path d="M250,38.5c116.813,0,211.5,94.693,211.5,211.5c0,116.813-94.687,211.5-211.5,211.5c-116.807,0-211.5-94.687-211.5-211.5
	C38.5,133.193,133.193,38.5,250,38.5z"/>
</g></g><g transform="translate(805,630) scale(0.07,0.07)"><g transform="" style="fill: rgb(0, 0, 0);">
<path  d="M470,38.5h-47c0,0-29.157,0-66.5,0c-5.711,0-11.611,0-17.63,0c-47.461,0-102.168,0-127.37,0
	C94.65,38.5,0,133.222,0,250c0,116.765,94.65,211.5,211.5,211.5c31.48,0,83.041,0,127.37,0c6.035,0,11.932,0,17.63,0
	c37.686,0,66.5,0,66.5,0h47h30v-423H470z"/>
</g></g><g transform="translate(840,630) scale(0.07,0.07)"><g transform="" style="fill: rgb(0, 0, 0);">
<path d="M288.5,38.5c-42.907,0-123.188,0-171.55,0c-23.857,0-39.95,0-39.95,0H59.5H30H0v423h30h29.5H77c0,0,16.216,0,39.95,0
	c51.332,0,137.84,0,171.55,0C405.301,461.5,500,366.8,500,250C500,133.191,405.301,38.5,288.5,38.5z"/>
</g></g><g transform="translate(910,630) scale(0.07,0.07)"><g transform="" style="fill: rgb(0, 0, 0);">
<path d="M250,38.5c116.813,0,211.5,94.693,211.5,211.5c0,116.813-94.687,211.5-211.5,211.5c-116.807,0-211.5-94.687-211.5-211.5
	C38.5,133.193,133.193,38.5,250,38.5z"/>
</g></g><g transform="translate(70,665) scale(0.07,0.07)"><g transform="" style="fill: rgb(0, 0, 0);">
<path d="M250,38.5c116.813,0,211.5,94.693,211.5,211.5c0,116.813-94.687,211.5-211.5,211.5c-116.807,0-211.5-94.687-211.5-211.5
	C38.5,133.193,133.193,38.5,250,38.5z"/>
</g></g><g transform="translate(245,665) scale(0.07,0.07)"><g transform="" style="fill: rgb(0, 0, 0);">
<path d="M250,38.5c116.813,0,211.5,94.693,211.5,211.5c0,116.813-94.687,211.5-211.5,211.5c-116.807,0-211.5-94.687-211.5-211.5
	C38.5,133.193,133.193,38.5,250,38.5z"/>
</g></g><g transform="translate(350,665) scale(0.07,0.07)"><g transform="" style="fill: rgb(0, 0, 0);">
<path  d="M470,38.5h-47c0,0-29.157,0-66.5,0c-5.711,0-11.611,0-17.63,0c-47.461,0-102.168,0-127.37,0
	C94.65,38.5,0,133.222,0,250c0,116.765,94.65,211.5,211.5,211.5c31.48,0,83.041,0,127.37,0c6.035,0,11.932,0,17.63,0
	c37.686,0,66.5,0,66.5,0h47h30v-423H470z"/>
</g></g><g transform="translate(385,665) scale(0.07,0.07)"><g transform="" style="fill: rgb(0, 0, 0);">
<polygon points="250,38.5 0,38.5 0,461.5 250,461.5 500,461.5 500,38.5 "/>
</g></g><g transform="translate(420,665) scale(0.07,0.07)"><g transform="" style="fill: rgb(0, 0, 0);">
<polygon points="250,38.5 0,38.5 0,461.5 250,461.5 500,461.5 500,38.5 "/>
</g></g><g transform="translate(455,665) scale(0.07,0.07)"><g transform="" style="fill: rgb(0, 0, 0);">
<polygon points="250,38.5 0,38.5 0,461.5 250,461.5 500,461.5 500,38.5 "/>
</g></g><g transform="translate(490,665) scale(0.07,0.07)"><g transform="" style="fill: rgb(0, 0, 0);">
<path d="M288.5,38.5c-42.907,0-123.188,0-171.55,0c-23.857,0-39.95,0-39.95,0H59.5H30H0v423h30h29.5H77c0,0,16.216,0,39.95,0
	c51.332,0,137.84,0,171.55,0C405.301,461.5,500,366.8,500,250C500,133.191,405.301,38.5,288.5,38.5z"/>
</g></g><g transform="translate(595,665) scale(0.07,0.07)"><g transform="" style="fill: rgb(0, 0, 0);">
<path  d="M470,38.5h-47c0,0-29.157,0-66.5,0c-5.711,0-11.611,0-17.63,0c-47.461,0-102.168,0-127.37,0
	C94.65,38.5,0,133.222,0,250c0,116.765,94.65,211.5,211.5,211.5c31.48,0,83.041,0,127.37,0c6.035,0,11.932,0,17.63,0
	c37.686,0,66.5,0,66.5,0h47h30v-423H470z"/>
</g></g><g transform="translate(630,665) scale(0.07,0.07)"><g transform="" style="fill: rgb(0, 0, 0);">
<polygon points="250,38.5 0,38.5 0,461.5 250,461.5 500,461.5 500,38.5 "/>
</g></g><g transform="translate(665,665) scale(0.07,0.07)"><g transform="" style="fill: rgb(0, 0, 0);">
<path d="M288.5,38.5c-42.907,0-123.188,0-171.55,0c-23.857,0-39.95,0-39.95,0H59.5H30H0v423h30h29.5H77c0,0,16.216,0,39.95,0
	c51.332,0,137.84,0,171.55,0C405.301,461.5,500,366.8,500,250C500,133.191,405.301,38.5,288.5,38.5z"/>
</g></g><g transform="translate(805,665) scale(0.07,0.07)"><g transform="" style="fill: rgb(0, 0, 0);">
<path  d="M470,38.5h-47c0,0-29.157,0-66.5,0c-5.711,0-11.611,0-17.63,0c-47.461,0-102.168,0-127.37,0
	C94.65,38.5,0,133.222,0,250c0,116.765,94.65,211.5,211.5,211.5c31.48,0,83.041,0,127.37,0c6.035,0,11.932,0,17.63,0
	c37.686,0,66.5,0,66.5,0h47h30v-423H470z"/>
</g></g><g transform="translate(840,665) scale(0.07,0.07)"><g transform="" style="fill: rgb(0, 0, 0);">
<path d="M288.5,38.5c-42.907,0-123.188,0-171.55,0c-23.857,0-39.95,0-39.95,0H59.5H30H0v423h30h29.5H77c0,0,16.216,0,39.95,0
	c51.332,0,137.84,0,171.55,0C405.301,461.5,500,366.8,500,250C500,133.191,405.301,38.5,288.5,38.5z"/>
</g></g><g transform="translate(910,665) scale(0.07,0.07)"><g transform="" style="fill: rgb(0, 0, 0);">
<path d="M250,38.5c116.813,0,211.5,94.693,211.5,211.5c0,116.813-94.687,211.5-211.5,211.5c-116.807,0-211.5-94.687-211.5-211.5
	C38.5,133.193,133.193,38.5,250,38.5z"/>
</g></g><g transform="translate(35,700) scale(0.07,0.07)"><g transform="" style="fill: rgb(0, 0, 0);">
<path  d="M470,38.5h-47c0,0-29.157,0-66.5,0c-5.711,0-11.611,0-17.63,0c-47.461,0-102.168,0-127.37,0
	C94.65,38.5,0,133.222,0,250c0,116.765,94.65,211.5,211.5,211.5c31.48,0,83.041,0,127.37,0c6.035,0,11.932,0,17.63,0
	c37.686,0,66.5,0,66.5,0h47h30v-423H470z"/>
</g></g><g transform="translate(70,700) scale(0.07,0.07)"><g transform="" style="fill: rgb(0, 0, 0);">
<polygon points="250,38.5 0,38.5 0,461.5 250,461.5 500,461.5 500,38.5 "/>
</g></g><g transform="translate(105,700) scale(0.07,0.07)"><g transform="" style="fill: rgb(0, 0, 0);">
<path d="M288.5,38.5c-42.907,0-123.188,0-171.55,0c-23.857,0-39.95,0-39.95,0H59.5H30H0v423h30h29.5H77c0,0,16.216,0,39.95,0
	c51.332,0,137.84,0,171.55,0C405.301,461.5,500,366.8,500,250C500,133.191,405.301,38.5,288.5,38.5z"/>
</g></g><g transform="translate(175,700) scale(0.07,0.07)"><g transform="" style="fill: rgb(0, 0, 0);">
<path  d="M470,38.5h-47c0,0-29.157,0-66.5,0c-5.711,0-11.611,0-17.63,0c-47.461,0-102.168,0-127.37,0
	C94.65,38.5,0,133.222,0,250c0,116.765,94.65,211.5,211.5,211.5c31.48,0,83.041,0,127.37,0c6.035,0,11.932,0,17.63,0
	c37.686,0,66.5,0,66.5,0h47h30v-423H470z"/>
</g></g><g transform="translate(210,700) scale(0.07,0.07)"><g transform="" style="fill: rgb(0, 0, 0);">
<path d="M288.5,38.5c-42.907,0-123.188,0-171.55,0c-23.857,0-39.95,0-39.95,0H59.5H30H0v423h30h29.5H77c0,0,16.216,0,39.95,0
	c51.332,0,137.84,0,171.55,0C405.301,461.5,500,366.8,500,250C500,133.191,405.301,38.5,288.5,38.5z"/>
</g></g><g transform="translate(280,700) scale(0.07,0.07)"><g transform="" style="fill: rgb(0, 0, 0);">
<path d="M250,38.5c116.813,0,211.5,94.693,211.5,211.5c0,116.813-94.687,211.5-211.5,211.5c-116.807,0-211.5-94.687-211.5-211.5
	C38.5,133.193,133.193,38.5,250,38.5z"/>
</g></g><g transform="translate(385,700) scale(0.07,0.07)"><g transform="" style="fill: rgb(0, 0, 0);">
<path d="M250,38.5c116.813,0,211.5,94.693,211.5,211.5c0,116.813-94.687,211.5-211.5,211.5c-116.807,0-211.5-94.687-211.5-211.5
	C38.5,133.193,133.193,38.5,250,38.5z"/>
</g></g><g transform="translate(455,700) scale(0.07,0.07)"><g transform="" style="fill: rgb(0, 0, 0);">
<path  d="M470,38.5h-47c0,0-29.157,0-66.5,0c-5.711,0-11.611,0-17.63,0c-47.461,0-102.168,0-127.37,0
	C94.65,38.5,0,133.222,0,250c0,116.765,94.65,211.5,211.5,211.5c31.48,0,83.041,0,127.37,0c6.035,0,11.932,0,17.63,0
	c37.686,0,66.5,0,66.5,0h47h30v-423H470z"/>
</g></g><g transform="translate(490,700) scale(0.07,0.07)"><g transform="" style="fill: rgb(0, 0, 0);">
<polygon points="250,38.5 0,38.5 0,461.5 250,461.5 500,461.5 500,38.5 "/>
</g></g><g transform="translate(525,700) scale(0.07,0.07)"><g transform="" style="fill: rgb(0, 0, 0);">
<polygon points="250,38.5 0,38.5 0,461.5 250,461.5 500,461.5 500,38.5 "/>
</g></g><g transform="translate(560,700) scale(0.07,0.07)"><g transform="" style="fill: rgb(0, 0, 0);">
<polygon points="250,38.5 0,38.5 0,461.5 250,461.5 500,461.5 500,38.5 "/>
</g></g><g transform="translate(595,700) scale(0.07,0.07)"><g transform="" style="fill: rgb(0, 0, 0);">
<polygon points="250,38.5 0,38.5 0,461.5 250,461.5 500,461.5 500,38.5 "/>
</g></g><g transform="translate(630,700) scale(0.07,0.07)"><g transform="" style="fill: rgb(0, 0, 0);">
<path d="M288.5,38.5c-42.907,0-123.188,0-171.55,0c-23.857,0-39.95,0-39.95,0H59.5H30H0v423h30h29.5H77c0,0,16.216,0,39.95,0
	c51.332,0,137.84,0,171.55,0C405.301,461.5,500,366.8,500,250C500,133.191,405.301,38.5,288.5,38.5z"/>
</g></g><g transform="translate(700,700) scale(0.07,0.07)"><g transform="" style="fill: rgb(0, 0, 0);">
<path  d="M470,38.5h-47c0,0-29.157,0-66.5,0c-5.711,0-11.611,0-17.63,0c-47.461,0-102.168,0-127.37,0
	C94.65,38.5,0,133.222,0,250c0,116.765,94.65,211.5,211.5,211.5c31.48,0,83.041,0,127.37,0c6.035,0,11.932,0,17.63,0
	c37.686,0,66.5,0,66.5,0h47h30v-423H470z"/>
</g></g><g transform="translate(735,700) scale(0.07,0.07)"><g transform="" style="fill: rgb(0, 0, 0);">
<polygon points="250,38.5 0,38.5 0,461.5 250,461.5 500,461.5 500,38.5 "/>
</g></g><g transform="translate(770,700) scale(0.07,0.07)"><g transform="" style="fill: rgb(0, 0, 0);">
<polygon points="250,38.5 0,38.5 0,461.5 250,461.5 500,461.5 500,38.5 "/>
</g></g><g transform="translate(805,700) scale(0.07,0.07)"><g transform="" style="fill: rgb(0, 0, 0);">
<polygon points="250,38.5 0,38.5 0,461.5 250,461.5 500,461.5 500,38.5 "/>
</g></g><g transform="translate(840,700) scale(0.07,0.07)"><g transform="" style="fill: rgb(0, 0, 0);">
<polygon points="250,38.5 0,38.5 0,461.5 250,461.5 500,461.5 500,38.5 "/>
</g></g><g transform="translate(875,700) scale(0.07,0.07)"><g transform="" style="fill: rgb(0, 0, 0);">
<polygon points="250,38.5 0,38.5 0,461.5 250,461.5 500,461.5 500,38.5 "/>
</g></g><g transform="translate(910,700) scale(0.07,0.07)"><g transform="" style="fill: rgb(0, 0, 0);">
<path d="M288.5,38.5c-42.907,0-123.188,0-171.55,0c-23.857,0-39.95,0-39.95,0H59.5H30H0v423h30h29.5H77c0,0,16.216,0,39.95,0
	c51.332,0,137.84,0,171.55,0C405.301,461.5,500,366.8,500,250C500,133.191,405.301,38.5,288.5,38.5z"/>
</g></g><g transform="translate(280,735) scale(0.07,0.07)"><g transform="" style="fill: rgb(0, 0, 0);">
<path  d="M470,38.5h-47c0,0-29.157,0-66.5,0c-5.711,0-11.611,0-17.63,0c-47.461,0-102.168,0-127.37,0
	C94.65,38.5,0,133.222,0,250c0,116.765,94.65,211.5,211.5,211.5c31.48,0,83.041,0,127.37,0c6.035,0,11.932,0,17.63,0
	c37.686,0,66.5,0,66.5,0h47h30v-423H470z"/>
</g></g><g transform="translate(315,735) scale(0.07,0.07)"><g transform="" style="fill: rgb(0, 0, 0);">
<path d="M288.5,38.5c-42.907,0-123.188,0-171.55,0c-23.857,0-39.95,0-39.95,0H59.5H30H0v423h30h29.5H77c0,0,16.216,0,39.95,0
	c51.332,0,137.84,0,171.55,0C405.301,461.5,500,366.8,500,250C500,133.191,405.301,38.5,288.5,38.5z"/>
</g></g><g transform="translate(385,735) scale(0.07,0.07)"><g transform="" style="fill: rgb(0, 0, 0);">
<path d="M250,38.5c116.813,0,211.5,94.693,211.5,211.5c0,116.813-94.687,211.5-211.5,211.5c-116.807,0-211.5-94.687-211.5-211.5
	C38.5,133.193,133.193,38.5,250,38.5z"/>
</g></g><g transform="translate(560,735) scale(0.07,0.07)"><g transform="" style="fill: rgb(0, 0, 0);">
<path  d="M470,38.5h-47c0,0-29.157,0-66.5,0c-5.711,0-11.611,0-17.63,0c-47.461,0-102.168,0-127.37,0
	C94.65,38.5,0,133.222,0,250c0,116.765,94.65,211.5,211.5,211.5c31.48,0,83.041,0,127.37,0c6.035,0,11.932,0,17.63,0
	c37.686,0,66.5,0,66.5,0h47h30v-423H470z"/>
</g></g><g transform="translate(595,735) scale(0.07,0.07)"><g transform="" style="fill: rgb(0, 0, 0);">
<polygon points="250,38.5 0,38.5 0,461.5 250,461.5 500,461.5 500,38.5 "/>
</g></g><g transform="translate(630,735) scale(0.07,0.07)"><g transform="" style="fill: rgb(0, 0, 0);">
<path d="M288.5,38.5c-42.907,0-123.188,0-171.55,0c-23.857,0-39.95,0-39.95,0H59.5H30H0v423h30h29.5H77c0,0,16.216,0,39.95,0
	c51.332,0,137.84,0,171.55,0C405.301,461.5,500,366.8,500,250C500,133.191,405.301,38.5,288.5,38.5z"/>
</g></g><g transform="translate(700,735) scale(0.07,0.07)"><g transform="" style="fill: rgb(0, 0, 0);">
<path d="M250,38.5c116.813,0,211.5,94.693,211.5,211.5c0,116.813-94.687,211.5-211.5,211.5c-116.807,0-211.5-94.687-211.5-211.5
	C38.5,133.193,133.193,38.5,250,38.5z"/>
</g></g><g transform="translate(840,735) scale(0.07,0.07)"><g transform="" style="fill: rgb(0, 0, 0);">
<path  d="M470,38.5h-47c0,0-29.157,0-66.5,0c-5.711,0-11.611,0-17.63,0c-47.461,0-102.168,0-127.37,0
	C94.65,38.5,0,133.222,0,250c0,116.765,94.65,211.5,211.5,211.5c31.48,0,83.041,0,127.37,0c6.035,0,11.932,0,17.63,0
	c37.686,0,66.5,0,66.5,0h47h30v-423H470z"/>
</g></g><g transform="translate(875,735) scale(0.07,0.07)"><g transform="" style="fill: rgb(0, 0, 0);">
<polygon points="250,38.5 0,38.5 0,461.5 250,461.5 500,461.5 500,38.5 "/>
</g></g><g transform="translate(910,735) scale(0.07,0.07)"><g transform="" style="fill: rgb(0, 0, 0);">
<polygon points="250,38.5 0,38.5 0,461.5 250,461.5 500,461.5 500,38.5 "/>
</g></g><g transform="translate(945,735) scale(0.07,0.07)"><g transform="" style="fill: rgb(0, 0, 0);">
<polygon points="250,38.5 0,38.5 0,461.5 250,461.5 500,461.5 500,38.5 "/>
</g></g><g transform="translate(980,735) scale(0.07,0.07)"><g transform="" style="fill: rgb(0, 0, 0);">
<path d="M288.5,38.5c-42.907,0-123.188,0-171.55,0c-23.857,0-39.95,0-39.95,0H59.5H30H0v423h30h29.5H77c0,0,16.216,0,39.95,0
	c51.332,0,137.84,0,171.55,0C405.301,461.5,500,366.8,500,250C500,133.191,405.301,38.5,288.5,38.5z"/>
</g></g><g transform="translate(280,770) scale(0.07,0.07)"><g transform="" style="fill: rgb(0, 0, 0);">
<path d="M250,38.5c116.813,0,211.5,94.693,211.5,211.5c0,116.813-94.687,211.5-211.5,211.5c-116.807,0-211.5-94.687-211.5-211.5
	C38.5,133.193,133.193,38.5,250,38.5z"/>
</g></g><g transform="translate(385,770) scale(0.07,0.07)"><g transform="" style="fill: rgb(0, 0, 0);">
<path  d="M470,38.5h-47c0,0-29.157,0-66.5,0c-5.711,0-11.611,0-17.63,0c-47.461,0-102.168,0-127.37,0
	C94.65,38.5,0,133.222,0,250c0,116.765,94.65,211.5,211.5,211.5c31.48,0,83.041,0,127.37,0c6.035,0,11.932,0,17.63,0
	c37.686,0,66.5,0,66.5,0h47h30v-423H470z"/>
</g></g><g transform="translate(420,770) scale(0.07,0.07)"><g transform="" style="fill: rgb(0, 0, 0);">
<path d="M288.5,38.5c-42.907,0-123.188,0-171.55,0c-23.857,0-39.95,0-39.95,0H59.5H30H0v423h30h29.5H77c0,0,16.216,0,39.95,0
	c51.332,0,137.84,0,171.55,0C405.301,461.5,500,366.8,500,250C500,133.191,405.301,38.5,288.5,38.5z"/>
</g></g><g transform="translate(490,770) scale(0.07,0.07)"><g transform="" style="fill: rgb(0, 0, 0);">
<path d="M250,38.5c116.813,0,211.5,94.693,211.5,211.5c0,116.813-94.687,211.5-211.5,211.5c-116.807,0-211.5-94.687-211.5-211.5
	C38.5,133.193,133.193,38.5,250,38.5z"/>
</g></g><g transform="translate(630,770) scale(0.07,0.07)"><g transform="" style="fill: rgb(0, 0, 0);">
<path  d="M470,38.5h-47c0,0-29.157,0-66.5,0c-5.711,0-11.611,0-17.63,0c-47.461,0-102.168,0-127.37,0
	C94.65,38.5,0,133.222,0,250c0,116.765,94.65,211.5,211.5,211.5c31.48,0,83.041,0,127.37,0c6.035,0,11.932,0,17.63,0
	c37.686,0,66.5,0,66.5,0h47h30v-423H470z"/>
</g></g><g transform="translate(665,770) scale(0.07,0.07)"><g transform="" style="fill: rgb(0, 0, 0);">
<polygon points="250,38.5 0,38.5 0,461.5 250,461.5 500,461.5 500,38.5 "/>
</g></g><g transform="translate(700,770) scale(0.07,0.07)"><g transform="" style="fill: rgb(0, 0, 0);">
<path d="M288.5,38.5c-42.907,0-123.188,0-171.55,0c-23.857,0-39.95,0-39.95,0H59.5H30H0v423h30h29.5H77c0,0,16.216,0,39.95,0
	c51.332,0,137.84,0,171.55,0C405.301,461.5,500,366.8,500,250C500,133.191,405.301,38.5,288.5,38.5z"/>
</g></g><g transform="translate(770,770) scale(0.07,0.07)"><g transform="" style="fill: rgb(0, 0, 0);">
<path d="M250,38.5c116.813,0,211.5,94.693,211.5,211.5c0,116.813-94.687,211.5-211.5,211.5c-116.807,0-211.5-94.687-211.5-211.5
	C38.5,133.193,133.193,38.5,250,38.5z"/>
</g></g><g transform="translate(840,770) scale(0.07,0.07)"><g transform="" style="fill: rgb(0, 0, 0);">
<path  d="M470,38.5h-47c0,0-29.157,0-66.5,0c-5.711,0-11.611,0-17.63,0c-47.461,0-102.168,0-127.37,0
	C94.65,38.5,0,133.222,0,250c0,116.765,94.65,211.5,211.5,211.5c31.48,0,83.041,0,127.37,0c6.035,0,11.932,0,17.63,0
	c37.686,0,66.5,0,66.5,0h47h30v-423H470z"/>
</g></g><g transform="translate(875,770) scale(0.07,0.07)"><g transform="" style="fill: rgb(0, 0, 0);">
<path d="M288.5,38.5c-42.907,0-123.188,0-171.55,0c-23.857,0-39.95,0-39.95,0H59.5H30H0v423h30h29.5H77c0,0,16.216,0,39.95,0
	c51.332,0,137.84,0,171.55,0C405.301,461.5,500,366.8,500,250C500,133.191,405.301,38.5,288.5,38.5z"/>
</g></g><g transform="translate(945,770) scale(0.07,0.07)"><g transform="" style="fill: rgb(0, 0, 0);">
<path d="M250,38.5c116.813,0,211.5,94.693,211.5,211.5c0,116.813-94.687,211.5-211.5,211.5c-116.807,0-211.5-94.687-211.5-211.5
	C38.5,133.193,133.193,38.5,250,38.5z"/>
</g></g><g transform="translate(280,805) scale(0.07,0.07)"><g transform="" style="fill: rgb(0, 0, 0);">
<path  d="M470,38.5h-47c0,0-29.157,0-66.5,0c-5.711,0-11.611,0-17.63,0c-47.461,0-102.168,0-127.37,0
	C94.65,38.5,0,133.222,0,250c0,116.765,94.65,211.5,211.5,211.5c31.48,0,83.041,0,127.37,0c6.035,0,11.932,0,17.63,0
	c37.686,0,66.5,0,66.5,0h47h30v-423H470z"/>
</g></g><g transform="translate(315,805) scale(0.07,0.07)"><g transform="" style="fill: rgb(0, 0, 0);">
<polygon points="250,38.5 0,38.5 0,461.5 250,461.5 500,461.5 500,38.5 "/>
</g></g><g transform="translate(350,805) scale(0.07,0.07)"><g transform="" style="fill: rgb(0, 0, 0);">
<polygon points="250,38.5 0,38.5 0,461.5 250,461.5 500,461.5 500,38.5 "/>
</g></g><g transform="translate(385,805) scale(0.07,0.07)"><g transform="" style="fill: rgb(0, 0, 0);">
<polygon points="250,38.5 0,38.5 0,461.5 250,461.5 500,461.5 500,38.5 "/>
</g></g><g transform="translate(420,805) scale(0.07,0.07)"><g transform="" style="fill: rgb(0, 0, 0);">
<polygon points="250,38.5 0,38.5 0,461.5 250,461.5 500,461.5 500,38.5 "/>
</g></g><g transform="translate(455,805) scale(0.07,0.07)"><g transform="" style="fill: rgb(0, 0, 0);">
<polygon points="250,38.5 0,38.5 0,461.5 250,461.5 500,461.5 500,38.5 "/>
</g></g><g transform="translate(490,805) scale(0.07,0.07)"><g transform="" style="fill: rgb(0, 0, 0);">
<polygon points="250,38.5 0,38.5 0,461.5 250,461.5 500,461.5 500,38.5 "/>
</g></g><g transform="translate(525,805) scale(0.07,0.07)"><g transform="" style="fill: rgb(0, 0, 0);">
<polygon points="250,38.5 0,38.5 0,461.5 250,461.5 500,461.5 500,38.5 "/>
</g></g><g transform="translate(560,805) scale(0.07,0.07)"><g transform="" style="fill: rgb(0, 0, 0);">
<path d="M288.5,38.5c-42.907,0-123.188,0-171.55,0c-23.857,0-39.95,0-39.95,0H59.5H30H0v423h30h29.5H77c0,0,16.216,0,39.95,0
	c51.332,0,137.84,0,171.55,0C405.301,461.5,500,366.8,500,250C500,133.191,405.301,38.5,288.5,38.5z"/>
</g></g><g transform="translate(630,805) scale(0.07,0.07)"><g transform="" style="fill: rgb(0, 0, 0);">
<path d="M250,38.5c116.813,0,211.5,94.693,211.5,211.5c0,116.813-94.687,211.5-211.5,211.5c-116.807,0-211.5-94.687-211.5-211.5
	C38.5,133.193,133.193,38.5,250,38.5z"/>
</g></g><g transform="translate(700,805) scale(0.07,0.07)"><g transform="" style="fill: rgb(0, 0, 0);">
<path d="M250,38.5c116.813,0,211.5,94.693,211.5,211.5c0,116.813-94.687,211.5-211.5,211.5c-116.807,0-211.5-94.687-211.5-211.5
	C38.5,133.193,133.193,38.5,250,38.5z"/>
</g></g><g transform="translate(840,805) scale(0.07,0.07)"><g transform="" style="fill: rgb(0, 0, 0);">
<path  d="M470,38.5h-47c0,0-29.157,0-66.5,0c-5.711,0-11.611,0-17.63,0c-47.461,0-102.168,0-127.37,0
	C94.65,38.5,0,133.222,0,250c0,116.765,94.65,211.5,211.5,211.5c31.48,0,83.041,0,127.37,0c6.035,0,11.932,0,17.63,0
	c37.686,0,66.5,0,66.5,0h47h30v-423H470z"/>
</g></g><g transform="translate(875,805) scale(0.07,0.07)"><g transform="" style="fill: rgb(0, 0, 0);">
<path d="M288.5,38.5c-42.907,0-123.188,0-171.55,0c-23.857,0-39.95,0-39.95,0H59.5H30H0v423h30h29.5H77c0,0,16.216,0,39.95,0
	c51.332,0,137.84,0,171.55,0C405.301,461.5,500,366.8,500,250C500,133.191,405.301,38.5,288.5,38.5z"/>
</g></g><g transform="translate(980,805) scale(0.07,0.07)"><g transform="" style="fill: rgb(0, 0, 0);">
<path d="M250,38.5c116.813,0,211.5,94.693,211.5,211.5c0,116.813-94.687,211.5-211.5,211.5c-116.807,0-211.5-94.687-211.5-211.5
	C38.5,133.193,133.193,38.5,250,38.5z"/>
</g></g><g transform="translate(315,840) scale(0.07,0.07)"><g transform="" style="fill: rgb(0, 0, 0);">
<path  d="M470,38.5h-47c0,0-29.157,0-66.5,0c-5.711,0-11.611,0-17.63,0c-47.461,0-102.168,0-127.37,0
	C94.65,38.5,0,133.222,0,250c0,116.765,94.65,211.5,211.5,211.5c31.48,0,83.041,0,127.37,0c6.035,0,11.932,0,17.63,0
	c37.686,0,66.5,0,66.5,0h47h30v-423H470z"/>
</g></g><g transform="translate(350,840) scale(0.07,0.07)"><g transform="" style="fill: rgb(0, 0, 0);">
<path d="M288.5,38.5c-42.907,0-123.188,0-171.55,0c-23.857,0-39.95,0-39.95,0H59.5H30H0v423h30h29.5H77c0,0,16.216,0,39.95,0
	c51.332,0,137.84,0,171.55,0C405.301,461.5,500,366.8,500,250C500,133.191,405.301,38.5,288.5,38.5z"/>
</g></g><g transform="translate(420,840) scale(0.07,0.07)"><g transform="" style="fill: rgb(0, 0, 0);">
<path d="M250,38.5c116.813,0,211.5,94.693,211.5,211.5c0,116.813-94.687,211.5-211.5,211.5c-116.807,0-211.5-94.687-211.5-211.5
	C38.5,133.193,133.193,38.5,250,38.5z"/>
</g></g><g transform="translate(525,840) scale(0.07,0.07)"><g transform="" style="fill: rgb(0, 0, 0);">
<path  d="M470,38.5h-47c0,0-29.157,0-66.5,0c-5.711,0-11.611,0-17.63,0c-47.461,0-102.168,0-127.37,0
	C94.65,38.5,0,133.222,0,250c0,116.765,94.65,211.5,211.5,211.5c31.48,0,83.041,0,127.37,0c6.035,0,11.932,0,17.63,0
	c37.686,0,66.5,0,66.5,0h47h30v-423H470z"/>
</g></g><g transform="translate(560,840) scale(0.07,0.07)"><g transform="" style="fill: rgb(0, 0, 0);">
<polygon points="250,38.5 0,38.5 0,461.5 250,461.5 500,461.5 500,38.5 "/>
</g></g><g transform="translate(595,840) scale(0.07,0.07)"><g transform="" style="fill: rgb(0, 0, 0);">
<path d="M288.5,38.5c-42.907,0-123.188,0-171.55,0c-23.857,0-39.95,0-39.95,0H59.5H30H0v423h30h29.5H77c0,0,16.216,0,39.95,0
	c51.332,0,137.84,0,171.55,0C405.301,461.5,500,366.8,500,250C500,133.191,405.301,38.5,288.5,38.5z"/>
</g></g><g transform="translate(700,840) scale(0.07,0.07)"><g transform="" style="fill: rgb(0, 0, 0);">
<path  d="M470,38.5h-47c0,0-29.157,0-66.5,0c-5.711,0-11.611,0-17.63,0c-47.461,0-102.168,0-127.37,0
	C94.65,38.5,0,133.222,0,250c0,116.765,94.65,211.5,211.5,211.5c31.48,0,83.041,0,127.37,0c6.035,0,11.932,0,17.63,0
	c37.686,0,66.5,0,66.5,0h47h30v-423H470z"/>
</g></g><g transform="translate(735,840) scale(0.07,0.07)"><g transform="" style="fill: rgb(0, 0, 0);">
<polygon points="250,38.5 0,38.5 0,461.5 250,461.5 500,461.5 500,38.5 "/>
</g></g><g transform="translate(770,840) scale(0.07,0.07)"><g transform="" style="fill: rgb(0, 0, 0);">
<polygon points="250,38.5 0,38.5 0,461.5 250,461.5 500,461.5 500,38.5 "/>
</g></g><g transform="translate(805,840) scale(0.07,0.07)"><g transform="" style="fill: rgb(0, 0, 0);">
<polygon points="250,38.5 0,38.5 0,461.5 250,461.5 500,461.5 500,38.5 "/>
</g></g><g transform="translate(840,840) scale(0.07,0.07)"><g transform="" style="fill: rgb(0, 0, 0);">
<path d="M288.5,38.5c-42.907,0-123.188,0-171.55,0c-23.857,0-39.95,0-39.95,0H59.5H30H0v423h30h29.5H77c0,0,16.216,0,39.95,0
	c51.332,0,137.84,0,171.55,0C405.301,461.5,500,366.8,500,250C500,133.191,405.301,38.5,288.5,38.5z"/>
</g></g><g transform="translate(910,840) scale(0.07,0.07)"><g transform="" style="fill: rgb(0, 0, 0);">
<path d="M250,38.5c116.813,0,211.5,94.693,211.5,211.5c0,116.813-94.687,211.5-211.5,211.5c-116.807,0-211.5-94.687-211.5-211.5
	C38.5,133.193,133.193,38.5,250,38.5z"/>
</g></g><g transform="translate(280,875) scale(0.07,0.07)"><g transform="" style="fill: rgb(0, 0, 0);">
<path  d="M470,38.5h-47c0,0-29.157,0-66.5,0c-5.711,0-11.611,0-17.63,0c-47.461,0-102.168,0-127.37,0
	C94.65,38.5,0,133.222,0,250c0,116.765,94.65,211.5,211.5,211.5c31.48,0,83.041,0,127.37,0c6.035,0,11.932,0,17.63,0
	c37.686,0,66.5,0,66.5,0h47h30v-423H470z"/>
</g></g><g transform="translate(315,875) scale(0.07,0.07)"><g transform="" style="fill: rgb(0, 0, 0);">
<path d="M288.5,38.5c-42.907,0-123.188,0-171.55,0c-23.857,0-39.95,0-39.95,0H59.5H30H0v423h30h29.5H77c0,0,16.216,0,39.95,0
	c51.332,0,137.84,0,171.55,0C405.301,461.5,500,366.8,500,250C500,133.191,405.301,38.5,288.5,38.5z"/>
</g></g><g transform="translate(420,875) scale(0.07,0.07)"><g transform="" style="fill: rgb(0, 0, 0);">
<path d="M250,38.5c116.813,0,211.5,94.693,211.5,211.5c0,116.813-94.687,211.5-211.5,211.5c-116.807,0-211.5-94.687-211.5-211.5
	C38.5,133.193,133.193,38.5,250,38.5z"/>
</g></g><g transform="translate(525,875) scale(0.07,0.07)"><g transform="" style="fill: rgb(0, 0, 0);">
<path  d="M470,38.5h-47c0,0-29.157,0-66.5,0c-5.711,0-11.611,0-17.63,0c-47.461,0-102.168,0-127.37,0
	C94.65,38.5,0,133.222,0,250c0,116.765,94.65,211.5,211.5,211.5c31.48,0,83.041,0,127.37,0c6.035,0,11.932,0,17.63,0
	c37.686,0,66.5,0,66.5,0h47h30v-423H470z"/>
</g></g><g transform="translate(560,875) scale(0.07,0.07)"><g transform="" style="fill: rgb(0, 0, 0);">
<polygon points="250,38.5 0,38.5 0,461.5 250,461.5 500,461.5 500,38.5 "/>
</g></g><g transform="translate(595,875) scale(0.07,0.07)"><g transform="" style="fill: rgb(0, 0, 0);">
<polygon points="250,38.5 0,38.5 0,461.5 250,461.5 500,461.5 500,38.5 "/>
</g></g><g transform="translate(630,875) scale(0.07,0.07)"><g transform="" style="fill: rgb(0, 0, 0);">
<polygon points="250,38.5 0,38.5 0,461.5 250,461.5 500,461.5 500,38.5 "/>
</g></g><g transform="translate(665,875) scale(0.07,0.07)"><g transform="" style="fill: rgb(0, 0, 0);">
<path d="M288.5,38.5c-42.907,0-123.188,0-171.55,0c-23.857,0-39.95,0-39.95,0H59.5H30H0v423h30h29.5H77c0,0,16.216,0,39.95,0
	c51.332,0,137.84,0,171.55,0C405.301,461.5,500,366.8,500,250C500,133.191,405.301,38.5,288.5,38.5z"/>
</g></g><g transform="translate(805,875) scale(0.07,0.07)"><g transform="" style="fill: rgb(0, 0, 0);">
<path  d="M470,38.5h-47c0,0-29.157,0-66.5,0c-5.711,0-11.611,0-17.63,0c-47.461,0-102.168,0-127.37,0
	C94.65,38.5,0,133.222,0,250c0,116.765,94.65,211.5,211.5,211.5c31.48,0,83.041,0,127.37,0c6.035,0,11.932,0,17.63,0
	c37.686,0,66.5,0,66.5,0h47h30v-423H470z"/>
</g></g><g transform="translate(840,875) scale(0.07,0.07)"><g transform="" style="fill: rgb(0, 0, 0);">
<polygon points="250,38.5 0,38.5 0,461.5 250,461.5 500,461.5 500,38.5 "/>
</g></g><g transform="translate(875,875) scale(0.07,0.07)"><g transform="" style="fill: rgb(0, 0, 0);">
<path d="M288.5,38.5c-42.907,0-123.188,0-171.55,0c-23.857,0-39.95,0-39.95,0H59.5H30H0v423h30h29.5H77c0,0,16.216,0,39.95,0
	c51.332,0,137.84,0,171.55,0C405.301,461.5,500,366.8,500,250C500,133.191,405.301,38.5,288.5,38.5z"/>
</g></g><g transform="translate(980,875) scale(0.07,0.07)"><g transform="" style="fill: rgb(0, 0, 0);">
<path d="M250,38.5c116.813,0,211.5,94.693,211.5,211.5c0,116.813-94.687,211.5-211.5,211.5c-116.807,0-211.5-94.687-211.5-211.5
	C38.5,133.193,133.193,38.5,250,38.5z"/>
</g></g><g transform="translate(280,910) scale(0.07,0.07)"><g transform="" style="fill: rgb(0, 0, 0);">
<path  d="M470,38.5h-47c0,0-29.157,0-66.5,0c-5.711,0-11.611,0-17.63,0c-47.461,0-102.168,0-127.37,0
	C94.65,38.5,0,133.222,0,250c0,116.765,94.65,211.5,211.5,211.5c31.48,0,83.041,0,127.37,0c6.035,0,11.932,0,17.63,0
	c37.686,0,66.5,0,66.5,0h47h30v-423H470z"/>
</g></g><g transform="translate(315,910) scale(0.07,0.07)"><g transform="" style="fill: rgb(0, 0, 0);">
<polygon points="250,38.5 0,38.5 0,461.5 250,461.5 500,461.5 500,38.5 "/>
</g></g><g transform="translate(350,910) scale(0.07,0.07)"><g transform="" style="fill: rgb(0, 0, 0);">
<polygon points="250,38.5 0,38.5 0,461.5 250,461.5 500,461.5 500,38.5 "/>
</g></g><g transform="translate(385,910) scale(0.07,0.07)"><g transform="" style="fill: rgb(0, 0, 0);">
<polygon points="250,38.5 0,38.5 0,461.5 250,461.5 500,461.5 500,38.5 "/>
</g></g><g transform="translate(420,910) scale(0.07,0.07)"><g transform="" style="fill: rgb(0, 0, 0);">
<path d="M288.5,38.5c-42.907,0-123.188,0-171.55,0c-23.857,0-39.95,0-39.95,0H59.5H30H0v423h30h29.5H77c0,0,16.216,0,39.95,0
	c51.332,0,137.84,0,171.55,0C405.301,461.5,500,366.8,500,250C500,133.191,405.301,38.5,288.5,38.5z"/>
</g></g><g transform="translate(595,910) scale(0.07,0.07)"><g transform="" style="fill: rgb(0, 0, 0);">
<path d="M250,38.5c116.813,0,211.5,94.693,211.5,211.5c0,116.813-94.687,211.5-211.5,211.5c-116.807,0-211.5-94.687-211.5-211.5
	C38.5,133.193,133.193,38.5,250,38.5z"/>
</g></g><g transform="translate(665,910) scale(0.07,0.07)"><g transform="" style="fill: rgb(0, 0, 0);">
<path d="M250,38.5c116.813,0,211.5,94.693,211.5,211.5c0,116.813-94.687,211.5-211.5,211.5c-116.807,0-211.5-94.687-211.5-211.5
	C38.5,133.193,133.193,38.5,250,38.5z"/>
</g></g><g transform="translate(805,910) scale(0.07,0.07)"><g transform="" style="fill: rgb(0, 0, 0);">
<path d="M250,38.5c116.813,0,211.5,94.693,211.5,211.5c0,116.813-94.687,211.5-211.5,211.5c-116.807,0-211.5-94.687-211.5-211.5
	C38.5,133.193,133.193,38.5,250,38.5z"/>
</g></g><g transform="translate(910,910) scale(0.07,0.07)"><g transform="" style="fill: rgb(0, 0, 0);">
<path d="M250,38.5c116.813,0,211.5,94.693,211.5,211.5c0,116.813-94.687,211.5-211.5,211.5c-116.807,0-211.5-94.687-211.5-211.5
	C38.5,133.193,133.193,38.5,250,38.5z"/>
</g></g><g transform="translate(980,910) scale(0.07,0.07)"><g transform="" style="fill: rgb(0, 0, 0);">
<path d="M250,38.5c116.813,0,211.5,94.693,211.5,211.5c0,116.813-94.687,211.5-211.5,211.5c-116.807,0-211.5-94.687-211.5-211.5
	C38.5,133.193,133.193,38.5,250,38.5z"/>
</g></g><g transform="translate(350,945) scale(0.07,0.07)"><g transform="" style="fill: rgb(0, 0, 0);">
<path  d="M470,38.5h-47c0,0-29.157,0-66.5,0c-5.711,0-11.611,0-17.63,0c-47.461,0-102.168,0-127.37,0
	C94.65,38.5,0,133.222,0,250c0,116.765,94.65,211.5,211.5,211.5c31.48,0,83.041,0,127.37,0c6.035,0,11.932,0,17.63,0
	c37.686,0,66.5,0,66.5,0h47h30v-423H470z"/>
</g></g><g transform="translate(385,945) scale(0.07,0.07)"><g transform="" style="fill: rgb(0, 0, 0);">
<path d="M288.5,38.5c-42.907,0-123.188,0-171.55,0c-23.857,0-39.95,0-39.95,0H59.5H30H0v423h30h29.5H77c0,0,16.216,0,39.95,0
	c51.332,0,137.84,0,171.55,0C405.301,461.5,500,366.8,500,250C500,133.191,405.301,38.5,288.5,38.5z"/>
</g></g><g transform="translate(490,945) scale(0.07,0.07)"><g transform="" style="fill: rgb(0, 0, 0);">
<path  d="M470,38.5h-47c0,0-29.157,0-66.5,0c-5.711,0-11.611,0-17.63,0c-47.461,0-102.168,0-127.37,0
	C94.65,38.5,0,133.222,0,250c0,116.765,94.65,211.5,211.5,211.5c31.48,0,83.041,0,127.37,0c6.035,0,11.932,0,17.63,0
	c37.686,0,66.5,0,66.5,0h47h30v-423H470z"/>
</g></g><g transform="translate(525,945) scale(0.07,0.07)"><g transform="" style="fill: rgb(0, 0, 0);">
<path d="M288.5,38.5c-42.907,0-123.188,0-171.55,0c-23.857,0-39.95,0-39.95,0H59.5H30H0v423h30h29.5H77c0,0,16.216,0,39.95,0
	c51.332,0,137.84,0,171.55,0C405.301,461.5,500,366.8,500,250C500,133.191,405.301,38.5,288.5,38.5z"/>
</g></g><g transform="translate(700,945) scale(0.07,0.07)"><g transform="" style="fill: rgb(0, 0, 0);">
<path d="M250,38.5c116.813,0,211.5,94.693,211.5,211.5c0,116.813-94.687,211.5-211.5,211.5c-116.807,0-211.5-94.687-211.5-211.5
	C38.5,133.193,133.193,38.5,250,38.5z"/>
</g></g><g transform="translate(770,945) scale(0.07,0.07)"><g transform="" style="fill: rgb(0, 0, 0);">
<path d="M250,38.5c116.813,0,211.5,94.693,211.5,211.5c0,116.813-94.687,211.5-211.5,211.5c-116.807,0-211.5-94.687-211.5-211.5
	C38.5,133.193,133.193,38.5,250,38.5z"/>
</g></g><g transform="translate(840,945) scale(0.07,0.07)"><g transform="" style="fill: rgb(0, 0, 0);">
<path  d="M470,38.5h-47c0,0-29.157,0-66.5,0c-5.711,0-11.611,0-17.63,0c-47.461,0-102.168,0-127.37,0
	C94.65,38.5,0,133.222,0,250c0,116.765,94.65,211.5,211.5,211.5c31.48,0,83.041,0,127.37,0c6.035,0,11.932,0,17.63,0
	c37.686,0,66.5,0,66.5,0h47h30v-423H470z"/>
</g></g><g transform="translate(875,945) scale(0.07,0.07)"><g transform="" style="fill: rgb(0, 0, 0);">
<path d="M288.5,38.5c-42.907,0-123.188,0-171.55,0c-23.857,0-39.95,0-39.95,0H59.5H30H0v423h30h29.5H77c0,0,16.216,0,39.95,0
	c51.332,0,137.84,0,171.55,0C405.301,461.5,500,366.8,500,250C500,133.191,405.301,38.5,288.5,38.5z"/>
</g></g><g transform="translate(945,945) scale(0.07,0.07)"><g transform="" style="fill: rgb(0, 0, 0);">
<path d="M250,38.5c116.813,0,211.5,94.693,211.5,211.5c0,116.813-94.687,211.5-211.5,211.5c-116.807,0-211.5-94.687-211.5-211.5
	C38.5,133.193,133.193,38.5,250,38.5z"/>
</g></g><g transform="translate(280,980) scale(0.07,0.07)"><g transform="" style="fill: rgb(0, 0, 0);">
<path  d="M470,38.5h-47c0,0-29.157,0-66.5,0c-5.711,0-11.611,0-17.63,0c-47.461,0-102.168,0-127.37,0
	C94.65,38.5,0,133.222,0,250c0,116.765,94.65,211.5,211.5,211.5c31.48,0,83.041,0,127.37,0c6.035,0,11.932,0,17.63,0
	c37.686,0,66.5,0,66.5,0h47h30v-423H470z"/>
</g></g><g transform="translate(315,980) scale(0.07,0.07)"><g transform="" style="fill: rgb(0, 0, 0);">
<polygon points="250,38.5 0,38.5 0,461.5 250,461.5 500,461.5 500,38.5 "/>
</g></g><g transform="translate(350,980) scale(0.07,0.07)"><g transform="" style="fill: rgb(0, 0, 0);">
<path d="M288.5,38.5c-42.907,0-123.188,0-171.55,0c-23.857,0-39.95,0-39.95,0H59.5H30H0v423h30h29.5H77c0,0,16.216,0,39.95,0
	c51.332,0,137.84,0,171.55,0C405.301,461.5,500,366.8,500,250C500,133.191,405.301,38.5,288.5,38.5z"/>
</g></g><g transform="translate(455,980) scale(0.07,0.07)"><g transform="" style="fill: rgb(0, 0, 0);">
<path d="M250,38.5c116.813,0,211.5,94.693,211.5,211.5c0,116.813-94.687,211.5-211.5,211.5c-116.807,0-211.5-94.687-211.5-211.5
	C38.5,133.193,133.193,38.5,250,38.5z"/>
</g></g><g transform="translate(525,980) scale(0.07,0.07)"><g transform="" style="fill: rgb(0, 0, 0);">
<path d="M250,38.5c116.813,0,211.5,94.693,211.5,211.5c0,116.813-94.687,211.5-211.5,211.5c-116.807,0-211.5-94.687-211.5-211.5
	C38.5,133.193,133.193,38.5,250,38.5z"/>
</g></g><g transform="translate(630,980) scale(0.07,0.07)"><g transform="" style="fill: rgb(0, 0, 0);">
<path  d="M470,38.5h-47c0,0-29.157,0-66.5,0c-5.711,0-11.611,0-17.63,0c-47.461,0-102.168,0-127.37,0
	C94.65,38.5,0,133.222,0,250c0,116.765,94.65,211.5,211.5,211.5c31.48,0,83.041,0,127.37,0c6.035,0,11.932,0,17.63,0
	c37.686,0,66.5,0,66.5,0h47h30v-423H470z"/>
</g></g><g transform="translate(665,980) scale(0.07,0.07)"><g transform="" style="fill: rgb(0, 0, 0);">
<polygon points="250,38.5 0,38.5 0,461.5 250,461.5 500,461.5 500,38.5 "/>
</g></g><g transform="translate(700,980) scale(0.07,0.07)"><g transform="" style="fill: rgb(0, 0, 0);">
<path d="M288.5,38.5c-42.907,0-123.188,0-171.55,0c-23.857,0-39.95,0-39.95,0H59.5H30H0v423h30h29.5H77c0,0,16.216,0,39.95,0
	c51.332,0,137.84,0,171.55,0C405.301,461.5,500,366.8,500,250C500,133.191,405.301,38.5,288.5,38.5z"/>
</g></g><g transform="translate(770,980) scale(0.07,0.07)"><g transform="" style="fill: rgb(0, 0, 0);">
<path d="M250,38.5c116.813,0,211.5,94.693,211.5,211.5c0,116.813-94.687,211.5-211.5,211.5c-116.807,0-211.5-94.687-211.5-211.5
	C38.5,133.193,133.193,38.5,250,38.5z"/>
</g></g><g transform="translate(945,980) scale(0.07,0.07)"><g transform="" style="fill: rgb(0, 0, 0);">
<path d="M250,38.5c116.813,0,211.5,94.693,211.5,211.5c0,116.813-94.687,211.5-211.5,211.5c-116.807,0-211.5-94.687-211.5-211.5
	C38.5,133.193,133.193,38.5,250,38.5z"/>
</g></g><g transform="translate(0,0) scale(2.45, 2.45)"><g transform=" translate(0,100) scale(1,-1) " style="fill: rgb(0, 0, 0);">
<g>
	<path style="fill:none;" d="M33.78,85H85V15H15.004l0.016,50.855C15.02,76.414,23.436,85,33.78,85z"/>
	<path d="M100,100V65.859V34.141C100,25.65,100,0,100,0S76.46,0,66.25,0H0l0.02,65.859C0.02,84.68,15.16,100,33.78,100h32.47H100z
		 M85,85H33.78c-10.344,0-18.76-8.586-18.76-19.145L15.004,15H85V85z"/>
</g>
</g></g><g transform="translate(770,0) scale(2.45, 2.45)"><g transform=" translate(0,100) scale(1,-1)  translate(100, 0) scale(-1,1) " style="fill: rgb(0, 0, 0);">
<g>
	<path style="fill:none;" d="M33.78,85H85V15H15.004l0.016,50.855C15.02,76.414,23.436,85,33.78,85z"/>
	<path d="M100,100V65.859V34.141C100,25.65,100,0,100,0S76.46,0,66.25,0H0l0.02,65.859C0.02,84.68,15.16,100,33.78,100h32.47H100z
		 M85,85H33.78c-10.344,0-18.76-8.586-18.76-19.145L15.004,15H85V85z"/>
</g>
</g></g><g transform="translate(0,770) scale(2.45, 2.45)"><g transform="" style="fill: rgb(0, 0, 0);">
<g>
	<path style="fill:none;" d="M33.78,85H85V15H15.004l0.016,50.855C15.02,76.414,23.436,85,33.78,85z"/>
	<path d="M100,100V65.859V34.141C100,25.65,100,0,100,0S76.46,0,66.25,0H0l0.02,65.859C0.02,84.68,15.16,100,33.78,100h32.47H100z
		 M85,85H33.78c-10.344,0-18.76-8.586-18.76-19.145L15.004,15H85V85z"/>
</g>
</g></g><g transform="translate(70,70) scale(1.05, 1.05)"><g transform=" translate(0,100) scale(1,-1) " style="fill: rgb(0, 0, 0);">
<path d="M100.061,99.984V0h-100l0.028,72.369C0.088,87.602,12.27,100,27.226,100h45.528c4.682,0,11.508,0,17.171-0.016
	C95.574,99.984,100.061,99.984,100.061,99.984z"/>
</g></g><g transform="translate(840,70) scale(1.05, 1.05)"><g transform=" translate(0,100) scale(1,-1)  translate(100, 0) scale(-1,1) " style="fill: rgb(0, 0, 0);">
<path d="M100.061,99.984V0h-100l0.028,72.369C0.088,87.602,12.27,100,27.226,100h45.528c4.682,0,11.508,0,17.171-0.016
	C95.574,99.984,100.061,99.984,100.061,99.984z"/>
</g></g><g transform="translate(70,840) scale(1.05, 1.05)"><g transform="" style="fill: rgb(0, 0, 0);">
<path d="M100.061,99.984V0h-100l0.028,72.369C0.088,87.602,12.27,100,27.226,100h45.528c4.682,0,11.508,0,17.171-0.016
	C95.574,99.984,100.061,99.984,100.061,99.984z"/>
</g></g></g></svg>